%TF.GenerationSoftware,KiCad,Pcbnew,8.0.2*%
%TF.CreationDate,2024-06-11T18:45:27+02:00*%
%TF.ProjectId,chu_main,6368755f-6d61-4696-9e2e-6b696361645f,rev?*%
%TF.SameCoordinates,Original*%
%TF.FileFunction,Legend,Bot*%
%TF.FilePolarity,Positive*%
%FSLAX46Y46*%
G04 Gerber Fmt 4.6, Leading zero omitted, Abs format (unit mm)*
G04 Created by KiCad (PCBNEW 8.0.2) date 2024-06-11 18:45:27*
%MOMM*%
%LPD*%
G01*
G04 APERTURE LIST*
G04 Aperture macros list*
%AMRoundRect*
0 Rectangle with rounded corners*
0 $1 Rounding radius*
0 $2 $3 $4 $5 $6 $7 $8 $9 X,Y pos of 4 corners*
0 Add a 4 corners polygon primitive as box body*
4,1,4,$2,$3,$4,$5,$6,$7,$8,$9,$2,$3,0*
0 Add four circle primitives for the rounded corners*
1,1,$1+$1,$2,$3*
1,1,$1+$1,$4,$5*
1,1,$1+$1,$6,$7*
1,1,$1+$1,$8,$9*
0 Add four rect primitives between the rounded corners*
20,1,$1+$1,$2,$3,$4,$5,0*
20,1,$1+$1,$4,$5,$6,$7,0*
20,1,$1+$1,$6,$7,$8,$9,0*
20,1,$1+$1,$8,$9,$2,$3,0*%
G04 Aperture macros list end*
%ADD10C,0.100000*%
%ADD11C,0.150000*%
%ADD12C,0.200000*%
%ADD13C,0.120000*%
%ADD14C,1.100000*%
%ADD15R,1.600000X1.600000*%
%ADD16O,1.600000X1.600000*%
%ADD17C,1.524000*%
%ADD18C,3.200000*%
%ADD19RoundRect,0.150000X0.512500X0.150000X-0.512500X0.150000X-0.512500X-0.150000X0.512500X-0.150000X0*%
%ADD20O,1.700000X1.700000*%
%ADD21R,1.700000X1.700000*%
%ADD22C,0.650000*%
%ADD23R,1.450000X0.600000*%
%ADD24R,1.450000X0.300000*%
%ADD25O,1.600000X1.000000*%
%ADD26O,2.100000X1.000000*%
%ADD27RoundRect,0.237500X0.300000X0.237500X-0.300000X0.237500X-0.300000X-0.237500X0.300000X-0.237500X0*%
%ADD28RoundRect,0.200000X-0.200000X-0.275000X0.200000X-0.275000X0.200000X0.275000X-0.200000X0.275000X0*%
%ADD29R,1.700000X3.500000*%
%ADD30R,3.500000X1.700000*%
%ADD31RoundRect,0.300000X-0.950000X0.450000X-0.950000X-0.450000X0.950000X-0.450000X0.950000X0.450000X0*%
G04 APERTURE END LIST*
D10*
X261127280Y-94349869D02*
X261127280Y-95111774D01*
X261508233Y-94730821D02*
X260746328Y-94730821D01*
X58127280Y-94349869D02*
X58127280Y-95111774D01*
X58508233Y-94730821D02*
X57746328Y-94730821D01*
X391627280Y-94349869D02*
X391627280Y-95111774D01*
X392008233Y-94730821D02*
X391246328Y-94730821D01*
X275627280Y-94349869D02*
X275627280Y-95111774D01*
X276008233Y-94730821D02*
X275246328Y-94730821D01*
X406127280Y-94349869D02*
X406127280Y-95111774D01*
X406508233Y-94730821D02*
X405746328Y-94730821D01*
X390372719Y-71845630D02*
X390372719Y-71083726D01*
X389991766Y-71464678D02*
X390753671Y-71464678D01*
X130627280Y-94349869D02*
X130627280Y-95111774D01*
X131008233Y-94730821D02*
X130246328Y-94730821D01*
X203127280Y-94349869D02*
X203127280Y-95111774D01*
X203508233Y-94730821D02*
X202746328Y-94730821D01*
X377127280Y-94349869D02*
X377127280Y-95111774D01*
X377508233Y-94730821D02*
X376746328Y-94730821D01*
X332372719Y-71845630D02*
X332372719Y-71083726D01*
X331991766Y-71464678D02*
X332753671Y-71464678D01*
X478627280Y-94349869D02*
X478627280Y-95111774D01*
X479008233Y-94730821D02*
X478246328Y-94730821D01*
X246627280Y-94349869D02*
X246627280Y-95111774D01*
X247008233Y-94730821D02*
X246246328Y-94730821D01*
X100372719Y-71845630D02*
X100372719Y-71083726D01*
X99991766Y-71464678D02*
X100753671Y-71464678D01*
X72627280Y-94349869D02*
X72627280Y-95111774D01*
X73008233Y-94730821D02*
X72246328Y-94730821D01*
X464127280Y-94349869D02*
X464127280Y-95111774D01*
X464508233Y-94730821D02*
X463746328Y-94730821D01*
X87127280Y-94349869D02*
X87127280Y-95111774D01*
X87508233Y-94730821D02*
X86746328Y-94730821D01*
X216372719Y-71845630D02*
X216372719Y-71083726D01*
X215991766Y-71464678D02*
X216753671Y-71464678D01*
X159627280Y-94349869D02*
X159627280Y-95111774D01*
X160008233Y-94730821D02*
X159246328Y-94730821D01*
X174127280Y-94349869D02*
X174127280Y-95111774D01*
X174508233Y-94730821D02*
X173746328Y-94730821D01*
X158372719Y-71845630D02*
X158372719Y-71083726D01*
X157991766Y-71464678D02*
X158753671Y-71464678D01*
X435127280Y-94349869D02*
X435127280Y-95111774D01*
X435508233Y-94730821D02*
X434746328Y-94730821D01*
X493127280Y-94349869D02*
X493127280Y-95111774D01*
X493508233Y-94730821D02*
X492746328Y-94730821D01*
X449627280Y-94349869D02*
X449627280Y-95111774D01*
X450008233Y-94730821D02*
X449246328Y-94730821D01*
X362627280Y-94349869D02*
X362627280Y-95111774D01*
X363008233Y-94730821D02*
X362246328Y-94730821D01*
X348127280Y-94349869D02*
X348127280Y-95111774D01*
X348508233Y-94730821D02*
X347746328Y-94730821D01*
X116127280Y-94349869D02*
X116127280Y-95111774D01*
X116508233Y-94730821D02*
X115746328Y-94730821D01*
X420627280Y-94349869D02*
X420627280Y-95111774D01*
X421008233Y-94730821D02*
X420246328Y-94730821D01*
X448372719Y-71845630D02*
X448372719Y-71083726D01*
X447991766Y-71464678D02*
X448753671Y-71464678D01*
X274372719Y-71845630D02*
X274372719Y-71083726D01*
X273991766Y-71464678D02*
X274753671Y-71464678D01*
X232127280Y-94349869D02*
X232127280Y-95111774D01*
X232508233Y-94730821D02*
X231746328Y-94730821D01*
X101627280Y-94349869D02*
X101627280Y-95111774D01*
X102008233Y-94730821D02*
X101246328Y-94730821D01*
X217627280Y-94349869D02*
X217627280Y-95111774D01*
X218008233Y-94730821D02*
X217246328Y-94730821D01*
X145127280Y-94349869D02*
X145127280Y-95111774D01*
X145508233Y-94730821D02*
X144746328Y-94730821D01*
X188627280Y-94349869D02*
X188627280Y-95111774D01*
X189008233Y-94730821D02*
X188246328Y-94730821D01*
X333627280Y-94349869D02*
X333627280Y-95111774D01*
X334008233Y-94730821D02*
X333246328Y-94730821D01*
X319127280Y-94349869D02*
X319127280Y-95111774D01*
X319508233Y-94730821D02*
X318746328Y-94730821D01*
X304627280Y-94349869D02*
X304627280Y-95111774D01*
X305008233Y-94730821D02*
X304246328Y-94730821D01*
D11*
X47317904Y-87588819D02*
X47317904Y-88398342D01*
X47317904Y-88398342D02*
X47270285Y-88493580D01*
X47270285Y-88493580D02*
X47222666Y-88541200D01*
X47222666Y-88541200D02*
X47127428Y-88588819D01*
X47127428Y-88588819D02*
X46936952Y-88588819D01*
X46936952Y-88588819D02*
X46841714Y-88541200D01*
X46841714Y-88541200D02*
X46794095Y-88493580D01*
X46794095Y-88493580D02*
X46746476Y-88398342D01*
X46746476Y-88398342D02*
X46746476Y-87588819D01*
X46127428Y-88017390D02*
X46222666Y-87969771D01*
X46222666Y-87969771D02*
X46270285Y-87922152D01*
X46270285Y-87922152D02*
X46317904Y-87826914D01*
X46317904Y-87826914D02*
X46317904Y-87779295D01*
X46317904Y-87779295D02*
X46270285Y-87684057D01*
X46270285Y-87684057D02*
X46222666Y-87636438D01*
X46222666Y-87636438D02*
X46127428Y-87588819D01*
X46127428Y-87588819D02*
X45936952Y-87588819D01*
X45936952Y-87588819D02*
X45841714Y-87636438D01*
X45841714Y-87636438D02*
X45794095Y-87684057D01*
X45794095Y-87684057D02*
X45746476Y-87779295D01*
X45746476Y-87779295D02*
X45746476Y-87826914D01*
X45746476Y-87826914D02*
X45794095Y-87922152D01*
X45794095Y-87922152D02*
X45841714Y-87969771D01*
X45841714Y-87969771D02*
X45936952Y-88017390D01*
X45936952Y-88017390D02*
X46127428Y-88017390D01*
X46127428Y-88017390D02*
X46222666Y-88065009D01*
X46222666Y-88065009D02*
X46270285Y-88112628D01*
X46270285Y-88112628D02*
X46317904Y-88207866D01*
X46317904Y-88207866D02*
X46317904Y-88398342D01*
X46317904Y-88398342D02*
X46270285Y-88493580D01*
X46270285Y-88493580D02*
X46222666Y-88541200D01*
X46222666Y-88541200D02*
X46127428Y-88588819D01*
X46127428Y-88588819D02*
X45936952Y-88588819D01*
X45936952Y-88588819D02*
X45841714Y-88541200D01*
X45841714Y-88541200D02*
X45794095Y-88493580D01*
X45794095Y-88493580D02*
X45746476Y-88398342D01*
X45746476Y-88398342D02*
X45746476Y-88207866D01*
X45746476Y-88207866D02*
X45794095Y-88112628D01*
X45794095Y-88112628D02*
X45841714Y-88065009D01*
X45841714Y-88065009D02*
X45936952Y-88017390D01*
X109211654Y-192138819D02*
X109211654Y-192948342D01*
X109211654Y-192948342D02*
X109164035Y-193043580D01*
X109164035Y-193043580D02*
X109116416Y-193091200D01*
X109116416Y-193091200D02*
X109021178Y-193138819D01*
X109021178Y-193138819D02*
X108830702Y-193138819D01*
X108830702Y-193138819D02*
X108735464Y-193091200D01*
X108735464Y-193091200D02*
X108687845Y-193043580D01*
X108687845Y-193043580D02*
X108640226Y-192948342D01*
X108640226Y-192948342D02*
X108640226Y-192138819D01*
X108211654Y-192234057D02*
X108164035Y-192186438D01*
X108164035Y-192186438D02*
X108068797Y-192138819D01*
X108068797Y-192138819D02*
X107830702Y-192138819D01*
X107830702Y-192138819D02*
X107735464Y-192186438D01*
X107735464Y-192186438D02*
X107687845Y-192234057D01*
X107687845Y-192234057D02*
X107640226Y-192329295D01*
X107640226Y-192329295D02*
X107640226Y-192424533D01*
X107640226Y-192424533D02*
X107687845Y-192567390D01*
X107687845Y-192567390D02*
X108259273Y-193138819D01*
X108259273Y-193138819D02*
X107640226Y-193138819D01*
X130427904Y-198638819D02*
X130427904Y-199448342D01*
X130427904Y-199448342D02*
X130380285Y-199543580D01*
X130380285Y-199543580D02*
X130332666Y-199591200D01*
X130332666Y-199591200D02*
X130237428Y-199638819D01*
X130237428Y-199638819D02*
X130046952Y-199638819D01*
X130046952Y-199638819D02*
X129951714Y-199591200D01*
X129951714Y-199591200D02*
X129904095Y-199543580D01*
X129904095Y-199543580D02*
X129856476Y-199448342D01*
X129856476Y-199448342D02*
X129856476Y-198638819D01*
X129475523Y-198638819D02*
X128856476Y-198638819D01*
X128856476Y-198638819D02*
X129189809Y-199019771D01*
X129189809Y-199019771D02*
X129046952Y-199019771D01*
X129046952Y-199019771D02*
X128951714Y-199067390D01*
X128951714Y-199067390D02*
X128904095Y-199115009D01*
X128904095Y-199115009D02*
X128856476Y-199210247D01*
X128856476Y-199210247D02*
X128856476Y-199448342D01*
X128856476Y-199448342D02*
X128904095Y-199543580D01*
X128904095Y-199543580D02*
X128951714Y-199591200D01*
X128951714Y-199591200D02*
X129046952Y-199638819D01*
X129046952Y-199638819D02*
X129332666Y-199638819D01*
X129332666Y-199638819D02*
X129427904Y-199591200D01*
X129427904Y-199591200D02*
X129475523Y-199543580D01*
X38718319Y-194485905D02*
X39527842Y-194485905D01*
X39527842Y-194485905D02*
X39623080Y-194533524D01*
X39623080Y-194533524D02*
X39670700Y-194581143D01*
X39670700Y-194581143D02*
X39718319Y-194676381D01*
X39718319Y-194676381D02*
X39718319Y-194866857D01*
X39718319Y-194866857D02*
X39670700Y-194962095D01*
X39670700Y-194962095D02*
X39623080Y-195009714D01*
X39623080Y-195009714D02*
X39527842Y-195057333D01*
X39527842Y-195057333D02*
X38718319Y-195057333D01*
X39670700Y-195485905D02*
X39718319Y-195628762D01*
X39718319Y-195628762D02*
X39718319Y-195866857D01*
X39718319Y-195866857D02*
X39670700Y-195962095D01*
X39670700Y-195962095D02*
X39623080Y-196009714D01*
X39623080Y-196009714D02*
X39527842Y-196057333D01*
X39527842Y-196057333D02*
X39432604Y-196057333D01*
X39432604Y-196057333D02*
X39337366Y-196009714D01*
X39337366Y-196009714D02*
X39289747Y-195962095D01*
X39289747Y-195962095D02*
X39242128Y-195866857D01*
X39242128Y-195866857D02*
X39194509Y-195676381D01*
X39194509Y-195676381D02*
X39146890Y-195581143D01*
X39146890Y-195581143D02*
X39099271Y-195533524D01*
X39099271Y-195533524D02*
X39004033Y-195485905D01*
X39004033Y-195485905D02*
X38908795Y-195485905D01*
X38908795Y-195485905D02*
X38813557Y-195533524D01*
X38813557Y-195533524D02*
X38765938Y-195581143D01*
X38765938Y-195581143D02*
X38718319Y-195676381D01*
X38718319Y-195676381D02*
X38718319Y-195914476D01*
X38718319Y-195914476D02*
X38765938Y-196057333D01*
X39194509Y-196819238D02*
X39242128Y-196962095D01*
X39242128Y-196962095D02*
X39289747Y-197009714D01*
X39289747Y-197009714D02*
X39384985Y-197057333D01*
X39384985Y-197057333D02*
X39527842Y-197057333D01*
X39527842Y-197057333D02*
X39623080Y-197009714D01*
X39623080Y-197009714D02*
X39670700Y-196962095D01*
X39670700Y-196962095D02*
X39718319Y-196866857D01*
X39718319Y-196866857D02*
X39718319Y-196485905D01*
X39718319Y-196485905D02*
X38718319Y-196485905D01*
X38718319Y-196485905D02*
X38718319Y-196819238D01*
X38718319Y-196819238D02*
X38765938Y-196914476D01*
X38765938Y-196914476D02*
X38813557Y-196962095D01*
X38813557Y-196962095D02*
X38908795Y-197009714D01*
X38908795Y-197009714D02*
X39004033Y-197009714D01*
X39004033Y-197009714D02*
X39099271Y-196962095D01*
X39099271Y-196962095D02*
X39146890Y-196914476D01*
X39146890Y-196914476D02*
X39194509Y-196819238D01*
X39194509Y-196819238D02*
X39194509Y-196485905D01*
X39718319Y-198009714D02*
X39718319Y-197438286D01*
X39718319Y-197724000D02*
X38718319Y-197724000D01*
X38718319Y-197724000D02*
X38861176Y-197628762D01*
X38861176Y-197628762D02*
X38956414Y-197533524D01*
X38956414Y-197533524D02*
X39004033Y-197438286D01*
X108616416Y-188513580D02*
X108664035Y-188561200D01*
X108664035Y-188561200D02*
X108806892Y-188608819D01*
X108806892Y-188608819D02*
X108902130Y-188608819D01*
X108902130Y-188608819D02*
X109044987Y-188561200D01*
X109044987Y-188561200D02*
X109140225Y-188465961D01*
X109140225Y-188465961D02*
X109187844Y-188370723D01*
X109187844Y-188370723D02*
X109235463Y-188180247D01*
X109235463Y-188180247D02*
X109235463Y-188037390D01*
X109235463Y-188037390D02*
X109187844Y-187846914D01*
X109187844Y-187846914D02*
X109140225Y-187751676D01*
X109140225Y-187751676D02*
X109044987Y-187656438D01*
X109044987Y-187656438D02*
X108902130Y-187608819D01*
X108902130Y-187608819D02*
X108806892Y-187608819D01*
X108806892Y-187608819D02*
X108664035Y-187656438D01*
X108664035Y-187656438D02*
X108616416Y-187704057D01*
X108044987Y-188037390D02*
X108140225Y-187989771D01*
X108140225Y-187989771D02*
X108187844Y-187942152D01*
X108187844Y-187942152D02*
X108235463Y-187846914D01*
X108235463Y-187846914D02*
X108235463Y-187799295D01*
X108235463Y-187799295D02*
X108187844Y-187704057D01*
X108187844Y-187704057D02*
X108140225Y-187656438D01*
X108140225Y-187656438D02*
X108044987Y-187608819D01*
X108044987Y-187608819D02*
X107854511Y-187608819D01*
X107854511Y-187608819D02*
X107759273Y-187656438D01*
X107759273Y-187656438D02*
X107711654Y-187704057D01*
X107711654Y-187704057D02*
X107664035Y-187799295D01*
X107664035Y-187799295D02*
X107664035Y-187846914D01*
X107664035Y-187846914D02*
X107711654Y-187942152D01*
X107711654Y-187942152D02*
X107759273Y-187989771D01*
X107759273Y-187989771D02*
X107854511Y-188037390D01*
X107854511Y-188037390D02*
X108044987Y-188037390D01*
X108044987Y-188037390D02*
X108140225Y-188085009D01*
X108140225Y-188085009D02*
X108187844Y-188132628D01*
X108187844Y-188132628D02*
X108235463Y-188227866D01*
X108235463Y-188227866D02*
X108235463Y-188418342D01*
X108235463Y-188418342D02*
X108187844Y-188513580D01*
X108187844Y-188513580D02*
X108140225Y-188561200D01*
X108140225Y-188561200D02*
X108044987Y-188608819D01*
X108044987Y-188608819D02*
X107854511Y-188608819D01*
X107854511Y-188608819D02*
X107759273Y-188561200D01*
X107759273Y-188561200D02*
X107711654Y-188513580D01*
X107711654Y-188513580D02*
X107664035Y-188418342D01*
X107664035Y-188418342D02*
X107664035Y-188227866D01*
X107664035Y-188227866D02*
X107711654Y-188132628D01*
X107711654Y-188132628D02*
X107759273Y-188085009D01*
X107759273Y-188085009D02*
X107854511Y-188037390D01*
X486211357Y-94703580D02*
X486258976Y-94751200D01*
X486258976Y-94751200D02*
X486401833Y-94798819D01*
X486401833Y-94798819D02*
X486497071Y-94798819D01*
X486497071Y-94798819D02*
X486639928Y-94751200D01*
X486639928Y-94751200D02*
X486735166Y-94655961D01*
X486735166Y-94655961D02*
X486782785Y-94560723D01*
X486782785Y-94560723D02*
X486830404Y-94370247D01*
X486830404Y-94370247D02*
X486830404Y-94227390D01*
X486830404Y-94227390D02*
X486782785Y-94036914D01*
X486782785Y-94036914D02*
X486735166Y-93941676D01*
X486735166Y-93941676D02*
X486639928Y-93846438D01*
X486639928Y-93846438D02*
X486497071Y-93798819D01*
X486497071Y-93798819D02*
X486401833Y-93798819D01*
X486401833Y-93798819D02*
X486258976Y-93846438D01*
X486258976Y-93846438D02*
X486211357Y-93894057D01*
X485258976Y-94798819D02*
X485830404Y-94798819D01*
X485544690Y-94798819D02*
X485544690Y-93798819D01*
X485544690Y-93798819D02*
X485639928Y-93941676D01*
X485639928Y-93941676D02*
X485735166Y-94036914D01*
X485735166Y-94036914D02*
X485830404Y-94084533D01*
X484306595Y-94798819D02*
X484878023Y-94798819D01*
X484592309Y-94798819D02*
X484592309Y-93798819D01*
X484592309Y-93798819D02*
X484687547Y-93941676D01*
X484687547Y-93941676D02*
X484782785Y-94036914D01*
X484782785Y-94036914D02*
X484878023Y-94084533D01*
X355907666Y-94703580D02*
X355955285Y-94751200D01*
X355955285Y-94751200D02*
X356098142Y-94798819D01*
X356098142Y-94798819D02*
X356193380Y-94798819D01*
X356193380Y-94798819D02*
X356336237Y-94751200D01*
X356336237Y-94751200D02*
X356431475Y-94655961D01*
X356431475Y-94655961D02*
X356479094Y-94560723D01*
X356479094Y-94560723D02*
X356526713Y-94370247D01*
X356526713Y-94370247D02*
X356526713Y-94227390D01*
X356526713Y-94227390D02*
X356479094Y-94036914D01*
X356479094Y-94036914D02*
X356431475Y-93941676D01*
X356431475Y-93941676D02*
X356336237Y-93846438D01*
X356336237Y-93846438D02*
X356193380Y-93798819D01*
X356193380Y-93798819D02*
X356098142Y-93798819D01*
X356098142Y-93798819D02*
X355955285Y-93846438D01*
X355955285Y-93846438D02*
X355907666Y-93894057D01*
X355574332Y-93798819D02*
X354907666Y-93798819D01*
X354907666Y-93798819D02*
X355336237Y-94798819D01*
X226080166Y-94703580D02*
X226127785Y-94751200D01*
X226127785Y-94751200D02*
X226270642Y-94798819D01*
X226270642Y-94798819D02*
X226365880Y-94798819D01*
X226365880Y-94798819D02*
X226508737Y-94751200D01*
X226508737Y-94751200D02*
X226603975Y-94655961D01*
X226603975Y-94655961D02*
X226651594Y-94560723D01*
X226651594Y-94560723D02*
X226699213Y-94370247D01*
X226699213Y-94370247D02*
X226699213Y-94227390D01*
X226699213Y-94227390D02*
X226651594Y-94036914D01*
X226651594Y-94036914D02*
X226603975Y-93941676D01*
X226603975Y-93941676D02*
X226508737Y-93846438D01*
X226508737Y-93846438D02*
X226365880Y-93798819D01*
X226365880Y-93798819D02*
X226270642Y-93798819D01*
X226270642Y-93798819D02*
X226127785Y-93846438D01*
X226127785Y-93846438D02*
X226080166Y-93894057D01*
X225223023Y-94132152D02*
X225223023Y-94798819D01*
X225461118Y-93751200D02*
X225699213Y-94465485D01*
X225699213Y-94465485D02*
X225080166Y-94465485D01*
X450107904Y-198638819D02*
X450107904Y-199448342D01*
X450107904Y-199448342D02*
X450060285Y-199543580D01*
X450060285Y-199543580D02*
X450012666Y-199591200D01*
X450012666Y-199591200D02*
X449917428Y-199638819D01*
X449917428Y-199638819D02*
X449726952Y-199638819D01*
X449726952Y-199638819D02*
X449631714Y-199591200D01*
X449631714Y-199591200D02*
X449584095Y-199543580D01*
X449584095Y-199543580D02*
X449536476Y-199448342D01*
X449536476Y-199448342D02*
X449536476Y-198638819D01*
X448584095Y-198638819D02*
X449060285Y-198638819D01*
X449060285Y-198638819D02*
X449107904Y-199115009D01*
X449107904Y-199115009D02*
X449060285Y-199067390D01*
X449060285Y-199067390D02*
X448965047Y-199019771D01*
X448965047Y-199019771D02*
X448726952Y-199019771D01*
X448726952Y-199019771D02*
X448631714Y-199067390D01*
X448631714Y-199067390D02*
X448584095Y-199115009D01*
X448584095Y-199115009D02*
X448536476Y-199210247D01*
X448536476Y-199210247D02*
X448536476Y-199448342D01*
X448536476Y-199448342D02*
X448584095Y-199543580D01*
X448584095Y-199543580D02*
X448631714Y-199591200D01*
X448631714Y-199591200D02*
X448726952Y-199638819D01*
X448726952Y-199638819D02*
X448965047Y-199638819D01*
X448965047Y-199638819D02*
X449060285Y-199591200D01*
X449060285Y-199591200D02*
X449107904Y-199543580D01*
X269355966Y-94703580D02*
X269403585Y-94751200D01*
X269403585Y-94751200D02*
X269546442Y-94798819D01*
X269546442Y-94798819D02*
X269641680Y-94798819D01*
X269641680Y-94798819D02*
X269784537Y-94751200D01*
X269784537Y-94751200D02*
X269879775Y-94655961D01*
X269879775Y-94655961D02*
X269927394Y-94560723D01*
X269927394Y-94560723D02*
X269975013Y-94370247D01*
X269975013Y-94370247D02*
X269975013Y-94227390D01*
X269975013Y-94227390D02*
X269927394Y-94036914D01*
X269927394Y-94036914D02*
X269879775Y-93941676D01*
X269879775Y-93941676D02*
X269784537Y-93846438D01*
X269784537Y-93846438D02*
X269641680Y-93798819D01*
X269641680Y-93798819D02*
X269546442Y-93798819D01*
X269546442Y-93798819D02*
X269403585Y-93846438D01*
X269403585Y-93846438D02*
X269355966Y-93894057D01*
X268451204Y-93798819D02*
X268927394Y-93798819D01*
X268927394Y-93798819D02*
X268975013Y-94275009D01*
X268975013Y-94275009D02*
X268927394Y-94227390D01*
X268927394Y-94227390D02*
X268832156Y-94179771D01*
X268832156Y-94179771D02*
X268594061Y-94179771D01*
X268594061Y-94179771D02*
X268498823Y-94227390D01*
X268498823Y-94227390D02*
X268451204Y-94275009D01*
X268451204Y-94275009D02*
X268403585Y-94370247D01*
X268403585Y-94370247D02*
X268403585Y-94608342D01*
X268403585Y-94608342D02*
X268451204Y-94703580D01*
X268451204Y-94703580D02*
X268498823Y-94751200D01*
X268498823Y-94751200D02*
X268594061Y-94798819D01*
X268594061Y-94798819D02*
X268832156Y-94798819D01*
X268832156Y-94798819D02*
X268927394Y-94751200D01*
X268927394Y-94751200D02*
X268975013Y-94703580D01*
X399183466Y-94703580D02*
X399231085Y-94751200D01*
X399231085Y-94751200D02*
X399373942Y-94798819D01*
X399373942Y-94798819D02*
X399469180Y-94798819D01*
X399469180Y-94798819D02*
X399612037Y-94751200D01*
X399612037Y-94751200D02*
X399707275Y-94655961D01*
X399707275Y-94655961D02*
X399754894Y-94560723D01*
X399754894Y-94560723D02*
X399802513Y-94370247D01*
X399802513Y-94370247D02*
X399802513Y-94227390D01*
X399802513Y-94227390D02*
X399754894Y-94036914D01*
X399754894Y-94036914D02*
X399707275Y-93941676D01*
X399707275Y-93941676D02*
X399612037Y-93846438D01*
X399612037Y-93846438D02*
X399469180Y-93798819D01*
X399469180Y-93798819D02*
X399373942Y-93798819D01*
X399373942Y-93798819D02*
X399231085Y-93846438D01*
X399231085Y-93846438D02*
X399183466Y-93894057D01*
X398707275Y-94798819D02*
X398516799Y-94798819D01*
X398516799Y-94798819D02*
X398421561Y-94751200D01*
X398421561Y-94751200D02*
X398373942Y-94703580D01*
X398373942Y-94703580D02*
X398278704Y-94560723D01*
X398278704Y-94560723D02*
X398231085Y-94370247D01*
X398231085Y-94370247D02*
X398231085Y-93989295D01*
X398231085Y-93989295D02*
X398278704Y-93894057D01*
X398278704Y-93894057D02*
X398326323Y-93846438D01*
X398326323Y-93846438D02*
X398421561Y-93798819D01*
X398421561Y-93798819D02*
X398612037Y-93798819D01*
X398612037Y-93798819D02*
X398707275Y-93846438D01*
X398707275Y-93846438D02*
X398754894Y-93894057D01*
X398754894Y-93894057D02*
X398802513Y-93989295D01*
X398802513Y-93989295D02*
X398802513Y-94227390D01*
X398802513Y-94227390D02*
X398754894Y-94322628D01*
X398754894Y-94322628D02*
X398707275Y-94370247D01*
X398707275Y-94370247D02*
X398612037Y-94417866D01*
X398612037Y-94417866D02*
X398421561Y-94417866D01*
X398421561Y-94417866D02*
X398326323Y-94370247D01*
X398326323Y-94370247D02*
X398278704Y-94322628D01*
X398278704Y-94322628D02*
X398231085Y-94227390D01*
X43072666Y-199198819D02*
X43405999Y-198722628D01*
X43644094Y-199198819D02*
X43644094Y-198198819D01*
X43644094Y-198198819D02*
X43263142Y-198198819D01*
X43263142Y-198198819D02*
X43167904Y-198246438D01*
X43167904Y-198246438D02*
X43120285Y-198294057D01*
X43120285Y-198294057D02*
X43072666Y-198389295D01*
X43072666Y-198389295D02*
X43072666Y-198532152D01*
X43072666Y-198532152D02*
X43120285Y-198627390D01*
X43120285Y-198627390D02*
X43167904Y-198675009D01*
X43167904Y-198675009D02*
X43263142Y-198722628D01*
X43263142Y-198722628D02*
X43644094Y-198722628D01*
X42120285Y-199198819D02*
X42691713Y-199198819D01*
X42405999Y-199198819D02*
X42405999Y-198198819D01*
X42405999Y-198198819D02*
X42501237Y-198341676D01*
X42501237Y-198341676D02*
X42596475Y-198436914D01*
X42596475Y-198436914D02*
X42691713Y-198484533D01*
X182804366Y-94703580D02*
X182851985Y-94751200D01*
X182851985Y-94751200D02*
X182994842Y-94798819D01*
X182994842Y-94798819D02*
X183090080Y-94798819D01*
X183090080Y-94798819D02*
X183232937Y-94751200D01*
X183232937Y-94751200D02*
X183328175Y-94655961D01*
X183328175Y-94655961D02*
X183375794Y-94560723D01*
X183375794Y-94560723D02*
X183423413Y-94370247D01*
X183423413Y-94370247D02*
X183423413Y-94227390D01*
X183423413Y-94227390D02*
X183375794Y-94036914D01*
X183375794Y-94036914D02*
X183328175Y-93941676D01*
X183328175Y-93941676D02*
X183232937Y-93846438D01*
X183232937Y-93846438D02*
X183090080Y-93798819D01*
X183090080Y-93798819D02*
X182994842Y-93798819D01*
X182994842Y-93798819D02*
X182851985Y-93846438D01*
X182851985Y-93846438D02*
X182804366Y-93894057D01*
X182471032Y-93798819D02*
X181851985Y-93798819D01*
X181851985Y-93798819D02*
X182185318Y-94179771D01*
X182185318Y-94179771D02*
X182042461Y-94179771D01*
X182042461Y-94179771D02*
X181947223Y-94227390D01*
X181947223Y-94227390D02*
X181899604Y-94275009D01*
X181899604Y-94275009D02*
X181851985Y-94370247D01*
X181851985Y-94370247D02*
X181851985Y-94608342D01*
X181851985Y-94608342D02*
X181899604Y-94703580D01*
X181899604Y-94703580D02*
X181947223Y-94751200D01*
X181947223Y-94751200D02*
X182042461Y-94798819D01*
X182042461Y-94798819D02*
X182328175Y-94798819D01*
X182328175Y-94798819D02*
X182423413Y-94751200D01*
X182423413Y-94751200D02*
X182471032Y-94703580D01*
X43107666Y-193708819D02*
X43440999Y-193232628D01*
X43679094Y-193708819D02*
X43679094Y-192708819D01*
X43679094Y-192708819D02*
X43298142Y-192708819D01*
X43298142Y-192708819D02*
X43202904Y-192756438D01*
X43202904Y-192756438D02*
X43155285Y-192804057D01*
X43155285Y-192804057D02*
X43107666Y-192899295D01*
X43107666Y-192899295D02*
X43107666Y-193042152D01*
X43107666Y-193042152D02*
X43155285Y-193137390D01*
X43155285Y-193137390D02*
X43202904Y-193185009D01*
X43202904Y-193185009D02*
X43298142Y-193232628D01*
X43298142Y-193232628D02*
X43679094Y-193232628D01*
X42726713Y-192804057D02*
X42679094Y-192756438D01*
X42679094Y-192756438D02*
X42583856Y-192708819D01*
X42583856Y-192708819D02*
X42345761Y-192708819D01*
X42345761Y-192708819D02*
X42250523Y-192756438D01*
X42250523Y-192756438D02*
X42202904Y-192804057D01*
X42202904Y-192804057D02*
X42155285Y-192899295D01*
X42155285Y-192899295D02*
X42155285Y-192994533D01*
X42155285Y-192994533D02*
X42202904Y-193137390D01*
X42202904Y-193137390D02*
X42774332Y-193708819D01*
X42774332Y-193708819D02*
X42155285Y-193708819D01*
X139528466Y-94703580D02*
X139576085Y-94751200D01*
X139576085Y-94751200D02*
X139718942Y-94798819D01*
X139718942Y-94798819D02*
X139814180Y-94798819D01*
X139814180Y-94798819D02*
X139957037Y-94751200D01*
X139957037Y-94751200D02*
X140052275Y-94655961D01*
X140052275Y-94655961D02*
X140099894Y-94560723D01*
X140099894Y-94560723D02*
X140147513Y-94370247D01*
X140147513Y-94370247D02*
X140147513Y-94227390D01*
X140147513Y-94227390D02*
X140099894Y-94036914D01*
X140099894Y-94036914D02*
X140052275Y-93941676D01*
X140052275Y-93941676D02*
X139957037Y-93846438D01*
X139957037Y-93846438D02*
X139814180Y-93798819D01*
X139814180Y-93798819D02*
X139718942Y-93798819D01*
X139718942Y-93798819D02*
X139576085Y-93846438D01*
X139576085Y-93846438D02*
X139528466Y-93894057D01*
X139147513Y-93894057D02*
X139099894Y-93846438D01*
X139099894Y-93846438D02*
X139004656Y-93798819D01*
X139004656Y-93798819D02*
X138766561Y-93798819D01*
X138766561Y-93798819D02*
X138671323Y-93846438D01*
X138671323Y-93846438D02*
X138623704Y-93894057D01*
X138623704Y-93894057D02*
X138576085Y-93989295D01*
X138576085Y-93989295D02*
X138576085Y-94084533D01*
X138576085Y-94084533D02*
X138623704Y-94227390D01*
X138623704Y-94227390D02*
X139195132Y-94798819D01*
X139195132Y-94798819D02*
X138576085Y-94798819D01*
X312631866Y-94703580D02*
X312679485Y-94751200D01*
X312679485Y-94751200D02*
X312822342Y-94798819D01*
X312822342Y-94798819D02*
X312917580Y-94798819D01*
X312917580Y-94798819D02*
X313060437Y-94751200D01*
X313060437Y-94751200D02*
X313155675Y-94655961D01*
X313155675Y-94655961D02*
X313203294Y-94560723D01*
X313203294Y-94560723D02*
X313250913Y-94370247D01*
X313250913Y-94370247D02*
X313250913Y-94227390D01*
X313250913Y-94227390D02*
X313203294Y-94036914D01*
X313203294Y-94036914D02*
X313155675Y-93941676D01*
X313155675Y-93941676D02*
X313060437Y-93846438D01*
X313060437Y-93846438D02*
X312917580Y-93798819D01*
X312917580Y-93798819D02*
X312822342Y-93798819D01*
X312822342Y-93798819D02*
X312679485Y-93846438D01*
X312679485Y-93846438D02*
X312631866Y-93894057D01*
X311774723Y-93798819D02*
X311965199Y-93798819D01*
X311965199Y-93798819D02*
X312060437Y-93846438D01*
X312060437Y-93846438D02*
X312108056Y-93894057D01*
X312108056Y-93894057D02*
X312203294Y-94036914D01*
X312203294Y-94036914D02*
X312250913Y-94227390D01*
X312250913Y-94227390D02*
X312250913Y-94608342D01*
X312250913Y-94608342D02*
X312203294Y-94703580D01*
X312203294Y-94703580D02*
X312155675Y-94751200D01*
X312155675Y-94751200D02*
X312060437Y-94798819D01*
X312060437Y-94798819D02*
X311869961Y-94798819D01*
X311869961Y-94798819D02*
X311774723Y-94751200D01*
X311774723Y-94751200D02*
X311727104Y-94703580D01*
X311727104Y-94703580D02*
X311679485Y-94608342D01*
X311679485Y-94608342D02*
X311679485Y-94370247D01*
X311679485Y-94370247D02*
X311727104Y-94275009D01*
X311727104Y-94275009D02*
X311774723Y-94227390D01*
X311774723Y-94227390D02*
X311869961Y-94179771D01*
X311869961Y-94179771D02*
X312060437Y-94179771D01*
X312060437Y-94179771D02*
X312155675Y-94227390D01*
X312155675Y-94227390D02*
X312203294Y-94275009D01*
X312203294Y-94275009D02*
X312250913Y-94370247D01*
X71410819Y-194312095D02*
X72220342Y-194312095D01*
X72220342Y-194312095D02*
X72315580Y-194359714D01*
X72315580Y-194359714D02*
X72363200Y-194407333D01*
X72363200Y-194407333D02*
X72410819Y-194502571D01*
X72410819Y-194502571D02*
X72410819Y-194693047D01*
X72410819Y-194693047D02*
X72363200Y-194788285D01*
X72363200Y-194788285D02*
X72315580Y-194835904D01*
X72315580Y-194835904D02*
X72220342Y-194883523D01*
X72220342Y-194883523D02*
X71410819Y-194883523D01*
X72410819Y-195883523D02*
X72410819Y-195312095D01*
X72410819Y-195597809D02*
X71410819Y-195597809D01*
X71410819Y-195597809D02*
X71553676Y-195502571D01*
X71553676Y-195502571D02*
X71648914Y-195407333D01*
X71648914Y-195407333D02*
X71696533Y-195312095D01*
X80484127Y-206678996D02*
X80446032Y-206717092D01*
X80446032Y-206717092D02*
X80407937Y-206793282D01*
X80407937Y-206793282D02*
X80407937Y-206983758D01*
X80407937Y-206983758D02*
X80446032Y-207059949D01*
X80446032Y-207059949D02*
X80484127Y-207098044D01*
X80484127Y-207098044D02*
X80560318Y-207136139D01*
X80560318Y-207136139D02*
X80636508Y-207136139D01*
X80636508Y-207136139D02*
X80750794Y-207098044D01*
X80750794Y-207098044D02*
X81207937Y-206640901D01*
X81207937Y-206640901D02*
X81207937Y-207136139D01*
X81207937Y-207898044D02*
X81207937Y-207440901D01*
X81207937Y-207669473D02*
X80407937Y-207669473D01*
X80407937Y-207669473D02*
X80522222Y-207593282D01*
X80522222Y-207593282D02*
X80598413Y-207517092D01*
X80598413Y-207517092D02*
X80636508Y-207440901D01*
X50657286Y-182577019D02*
X50657286Y-182119876D01*
X50657286Y-182348448D02*
X49857286Y-182348448D01*
X49857286Y-182348448D02*
X49971571Y-182272257D01*
X49971571Y-182272257D02*
X50047762Y-182196067D01*
X50047762Y-182196067D02*
X50085857Y-182119876D01*
X52445381Y-182544503D02*
X52407286Y-182468313D01*
X52407286Y-182468313D02*
X52407286Y-182354027D01*
X52407286Y-182354027D02*
X52445381Y-182239741D01*
X52445381Y-182239741D02*
X52521571Y-182163551D01*
X52521571Y-182163551D02*
X52597762Y-182125456D01*
X52597762Y-182125456D02*
X52750143Y-182087360D01*
X52750143Y-182087360D02*
X52864429Y-182087360D01*
X52864429Y-182087360D02*
X53016810Y-182125456D01*
X53016810Y-182125456D02*
X53093000Y-182163551D01*
X53093000Y-182163551D02*
X53169191Y-182239741D01*
X53169191Y-182239741D02*
X53207286Y-182354027D01*
X53207286Y-182354027D02*
X53207286Y-182430218D01*
X53207286Y-182430218D02*
X53169191Y-182544503D01*
X53169191Y-182544503D02*
X53131095Y-182582599D01*
X53131095Y-182582599D02*
X52864429Y-182582599D01*
X52864429Y-182582599D02*
X52864429Y-182430218D01*
X83687286Y-181926693D02*
X83687286Y-181469550D01*
X83687286Y-181698122D02*
X82887286Y-181698122D01*
X82887286Y-181698122D02*
X83001571Y-181621931D01*
X83001571Y-181621931D02*
X83077762Y-181545741D01*
X83077762Y-181545741D02*
X83115857Y-181469550D01*
X83687286Y-182688598D02*
X83687286Y-182231455D01*
X83687286Y-182460027D02*
X82887286Y-182460027D01*
X82887286Y-182460027D02*
X83001571Y-182383836D01*
X83001571Y-182383836D02*
X83077762Y-182307646D01*
X83077762Y-182307646D02*
X83115857Y-182231455D01*
X62440127Y-206678996D02*
X62402032Y-206717092D01*
X62402032Y-206717092D02*
X62363937Y-206793282D01*
X62363937Y-206793282D02*
X62363937Y-206983758D01*
X62363937Y-206983758D02*
X62402032Y-207059949D01*
X62402032Y-207059949D02*
X62440127Y-207098044D01*
X62440127Y-207098044D02*
X62516318Y-207136139D01*
X62516318Y-207136139D02*
X62592508Y-207136139D01*
X62592508Y-207136139D02*
X62706794Y-207098044D01*
X62706794Y-207098044D02*
X63163937Y-206640901D01*
X63163937Y-206640901D02*
X63163937Y-207136139D01*
X62706794Y-207593282D02*
X62668699Y-207517092D01*
X62668699Y-207517092D02*
X62630603Y-207478997D01*
X62630603Y-207478997D02*
X62554413Y-207440901D01*
X62554413Y-207440901D02*
X62516318Y-207440901D01*
X62516318Y-207440901D02*
X62440127Y-207478997D01*
X62440127Y-207478997D02*
X62402032Y-207517092D01*
X62402032Y-207517092D02*
X62363937Y-207593282D01*
X62363937Y-207593282D02*
X62363937Y-207745663D01*
X62363937Y-207745663D02*
X62402032Y-207821854D01*
X62402032Y-207821854D02*
X62440127Y-207859949D01*
X62440127Y-207859949D02*
X62516318Y-207898044D01*
X62516318Y-207898044D02*
X62554413Y-207898044D01*
X62554413Y-207898044D02*
X62630603Y-207859949D01*
X62630603Y-207859949D02*
X62668699Y-207821854D01*
X62668699Y-207821854D02*
X62706794Y-207745663D01*
X62706794Y-207745663D02*
X62706794Y-207593282D01*
X62706794Y-207593282D02*
X62744889Y-207517092D01*
X62744889Y-207517092D02*
X62782984Y-207478997D01*
X62782984Y-207478997D02*
X62859175Y-207440901D01*
X62859175Y-207440901D02*
X63011556Y-207440901D01*
X63011556Y-207440901D02*
X63087746Y-207478997D01*
X63087746Y-207478997D02*
X63125842Y-207517092D01*
X63125842Y-207517092D02*
X63163937Y-207593282D01*
X63163937Y-207593282D02*
X63163937Y-207745663D01*
X63163937Y-207745663D02*
X63125842Y-207821854D01*
X63125842Y-207821854D02*
X63087746Y-207859949D01*
X63087746Y-207859949D02*
X63011556Y-207898044D01*
X63011556Y-207898044D02*
X62859175Y-207898044D01*
X62859175Y-207898044D02*
X62782984Y-207859949D01*
X62782984Y-207859949D02*
X62744889Y-207821854D01*
X62744889Y-207821854D02*
X62706794Y-207745663D01*
X70157286Y-182081781D02*
X70157286Y-182615115D01*
X70157286Y-182615115D02*
X70957286Y-182272257D01*
X50679842Y-206678996D02*
X50717937Y-206793282D01*
X50717937Y-206793282D02*
X50717937Y-206983758D01*
X50717937Y-206983758D02*
X50679842Y-207059949D01*
X50679842Y-207059949D02*
X50641746Y-207098044D01*
X50641746Y-207098044D02*
X50565556Y-207136139D01*
X50565556Y-207136139D02*
X50489365Y-207136139D01*
X50489365Y-207136139D02*
X50413175Y-207098044D01*
X50413175Y-207098044D02*
X50375080Y-207059949D01*
X50375080Y-207059949D02*
X50336984Y-206983758D01*
X50336984Y-206983758D02*
X50298889Y-206831377D01*
X50298889Y-206831377D02*
X50260794Y-206755187D01*
X50260794Y-206755187D02*
X50222699Y-206717092D01*
X50222699Y-206717092D02*
X50146508Y-206678996D01*
X50146508Y-206678996D02*
X50070318Y-206678996D01*
X50070318Y-206678996D02*
X49994127Y-206717092D01*
X49994127Y-206717092D02*
X49956032Y-206755187D01*
X49956032Y-206755187D02*
X49917937Y-206831377D01*
X49917937Y-206831377D02*
X49917937Y-207021854D01*
X49917937Y-207021854D02*
X49956032Y-207136139D01*
X50184603Y-207402806D02*
X50717937Y-207593282D01*
X50184603Y-207783759D02*
X50717937Y-207593282D01*
X50717937Y-207593282D02*
X50908413Y-207517092D01*
X50908413Y-207517092D02*
X50946508Y-207478997D01*
X50946508Y-207478997D02*
X50984603Y-207402806D01*
X50679842Y-208050425D02*
X50717937Y-208126616D01*
X50717937Y-208126616D02*
X50717937Y-208278997D01*
X50717937Y-208278997D02*
X50679842Y-208355187D01*
X50679842Y-208355187D02*
X50603651Y-208393283D01*
X50603651Y-208393283D02*
X50565556Y-208393283D01*
X50565556Y-208393283D02*
X50489365Y-208355187D01*
X50489365Y-208355187D02*
X50451270Y-208278997D01*
X50451270Y-208278997D02*
X50451270Y-208164711D01*
X50451270Y-208164711D02*
X50413175Y-208088521D01*
X50413175Y-208088521D02*
X50336984Y-208050425D01*
X50336984Y-208050425D02*
X50298889Y-208050425D01*
X50298889Y-208050425D02*
X50222699Y-208088521D01*
X50222699Y-208088521D02*
X50184603Y-208164711D01*
X50184603Y-208164711D02*
X50184603Y-208278997D01*
X50184603Y-208278997D02*
X50222699Y-208355187D01*
X65729365Y-206678996D02*
X65729365Y-207059949D01*
X65957937Y-206602806D02*
X65157937Y-206869473D01*
X65157937Y-206869473D02*
X65957937Y-207136139D01*
X65196032Y-207821853D02*
X65157937Y-207745663D01*
X65157937Y-207745663D02*
X65157937Y-207631377D01*
X65157937Y-207631377D02*
X65196032Y-207517091D01*
X65196032Y-207517091D02*
X65272222Y-207440901D01*
X65272222Y-207440901D02*
X65348413Y-207402806D01*
X65348413Y-207402806D02*
X65500794Y-207364710D01*
X65500794Y-207364710D02*
X65615080Y-207364710D01*
X65615080Y-207364710D02*
X65767461Y-207402806D01*
X65767461Y-207402806D02*
X65843651Y-207440901D01*
X65843651Y-207440901D02*
X65919842Y-207517091D01*
X65919842Y-207517091D02*
X65957937Y-207631377D01*
X65957937Y-207631377D02*
X65957937Y-207707568D01*
X65957937Y-207707568D02*
X65919842Y-207821853D01*
X65919842Y-207821853D02*
X65881746Y-207859949D01*
X65881746Y-207859949D02*
X65615080Y-207859949D01*
X65615080Y-207859949D02*
X65615080Y-207707568D01*
X65145381Y-182544503D02*
X65107286Y-182468313D01*
X65107286Y-182468313D02*
X65107286Y-182354027D01*
X65107286Y-182354027D02*
X65145381Y-182239741D01*
X65145381Y-182239741D02*
X65221571Y-182163551D01*
X65221571Y-182163551D02*
X65297762Y-182125456D01*
X65297762Y-182125456D02*
X65450143Y-182087360D01*
X65450143Y-182087360D02*
X65564429Y-182087360D01*
X65564429Y-182087360D02*
X65716810Y-182125456D01*
X65716810Y-182125456D02*
X65793000Y-182163551D01*
X65793000Y-182163551D02*
X65869191Y-182239741D01*
X65869191Y-182239741D02*
X65907286Y-182354027D01*
X65907286Y-182354027D02*
X65907286Y-182430218D01*
X65907286Y-182430218D02*
X65869191Y-182544503D01*
X65869191Y-182544503D02*
X65831095Y-182582599D01*
X65831095Y-182582599D02*
X65564429Y-182582599D01*
X65564429Y-182582599D02*
X65564429Y-182430218D01*
X86227286Y-181926693D02*
X86227286Y-181469550D01*
X86227286Y-181698122D02*
X85427286Y-181698122D01*
X85427286Y-181698122D02*
X85541571Y-181621931D01*
X85541571Y-181621931D02*
X85617762Y-181545741D01*
X85617762Y-181545741D02*
X85655857Y-181469550D01*
X85503476Y-182231455D02*
X85465381Y-182269551D01*
X85465381Y-182269551D02*
X85427286Y-182345741D01*
X85427286Y-182345741D02*
X85427286Y-182536217D01*
X85427286Y-182536217D02*
X85465381Y-182612408D01*
X85465381Y-182612408D02*
X85503476Y-182650503D01*
X85503476Y-182650503D02*
X85579667Y-182688598D01*
X85579667Y-182688598D02*
X85655857Y-182688598D01*
X85655857Y-182688598D02*
X85770143Y-182650503D01*
X85770143Y-182650503D02*
X86227286Y-182193360D01*
X86227286Y-182193360D02*
X86227286Y-182688598D01*
X67784127Y-206678996D02*
X67746032Y-206717092D01*
X67746032Y-206717092D02*
X67707937Y-206793282D01*
X67707937Y-206793282D02*
X67707937Y-206983758D01*
X67707937Y-206983758D02*
X67746032Y-207059949D01*
X67746032Y-207059949D02*
X67784127Y-207098044D01*
X67784127Y-207098044D02*
X67860318Y-207136139D01*
X67860318Y-207136139D02*
X67936508Y-207136139D01*
X67936508Y-207136139D02*
X68050794Y-207098044D01*
X68050794Y-207098044D02*
X68507937Y-206640901D01*
X68507937Y-206640901D02*
X68507937Y-207136139D01*
X67707937Y-207402806D02*
X67707937Y-207936140D01*
X67707937Y-207936140D02*
X68507937Y-207593282D01*
X88817937Y-207136139D02*
X88817937Y-206678996D01*
X88817937Y-206907568D02*
X88017937Y-206907568D01*
X88017937Y-206907568D02*
X88132222Y-206831377D01*
X88132222Y-206831377D02*
X88208413Y-206755187D01*
X88208413Y-206755187D02*
X88246508Y-206678996D01*
X88360794Y-207593282D02*
X88322699Y-207517092D01*
X88322699Y-207517092D02*
X88284603Y-207478997D01*
X88284603Y-207478997D02*
X88208413Y-207440901D01*
X88208413Y-207440901D02*
X88170318Y-207440901D01*
X88170318Y-207440901D02*
X88094127Y-207478997D01*
X88094127Y-207478997D02*
X88056032Y-207517092D01*
X88056032Y-207517092D02*
X88017937Y-207593282D01*
X88017937Y-207593282D02*
X88017937Y-207745663D01*
X88017937Y-207745663D02*
X88056032Y-207821854D01*
X88056032Y-207821854D02*
X88094127Y-207859949D01*
X88094127Y-207859949D02*
X88170318Y-207898044D01*
X88170318Y-207898044D02*
X88208413Y-207898044D01*
X88208413Y-207898044D02*
X88284603Y-207859949D01*
X88284603Y-207859949D02*
X88322699Y-207821854D01*
X88322699Y-207821854D02*
X88360794Y-207745663D01*
X88360794Y-207745663D02*
X88360794Y-207593282D01*
X88360794Y-207593282D02*
X88398889Y-207517092D01*
X88398889Y-207517092D02*
X88436984Y-207478997D01*
X88436984Y-207478997D02*
X88513175Y-207440901D01*
X88513175Y-207440901D02*
X88665556Y-207440901D01*
X88665556Y-207440901D02*
X88741746Y-207478997D01*
X88741746Y-207478997D02*
X88779842Y-207517092D01*
X88779842Y-207517092D02*
X88817937Y-207593282D01*
X88817937Y-207593282D02*
X88817937Y-207745663D01*
X88817937Y-207745663D02*
X88779842Y-207821854D01*
X88779842Y-207821854D02*
X88741746Y-207859949D01*
X88741746Y-207859949D02*
X88665556Y-207898044D01*
X88665556Y-207898044D02*
X88513175Y-207898044D01*
X88513175Y-207898044D02*
X88436984Y-207859949D01*
X88436984Y-207859949D02*
X88398889Y-207821854D01*
X88398889Y-207821854D02*
X88360794Y-207745663D01*
X88767286Y-181926693D02*
X88767286Y-181469550D01*
X88767286Y-181698122D02*
X87967286Y-181698122D01*
X87967286Y-181698122D02*
X88081571Y-181621931D01*
X88081571Y-181621931D02*
X88157762Y-181545741D01*
X88157762Y-181545741D02*
X88195857Y-181469550D01*
X87967286Y-182193360D02*
X87967286Y-182688598D01*
X87967286Y-182688598D02*
X88272048Y-182421932D01*
X88272048Y-182421932D02*
X88272048Y-182536217D01*
X88272048Y-182536217D02*
X88310143Y-182612408D01*
X88310143Y-182612408D02*
X88348238Y-182650503D01*
X88348238Y-182650503D02*
X88424429Y-182688598D01*
X88424429Y-182688598D02*
X88614905Y-182688598D01*
X88614905Y-182688598D02*
X88691095Y-182650503D01*
X88691095Y-182650503D02*
X88729191Y-182612408D01*
X88729191Y-182612408D02*
X88767286Y-182536217D01*
X88767286Y-182536217D02*
X88767286Y-182307646D01*
X88767286Y-182307646D02*
X88729191Y-182231455D01*
X88729191Y-182231455D02*
X88691095Y-182193360D01*
X73577937Y-207174234D02*
X73196984Y-206907567D01*
X73577937Y-206717091D02*
X72777937Y-206717091D01*
X72777937Y-206717091D02*
X72777937Y-207021853D01*
X72777937Y-207021853D02*
X72816032Y-207098043D01*
X72816032Y-207098043D02*
X72854127Y-207136138D01*
X72854127Y-207136138D02*
X72930318Y-207174234D01*
X72930318Y-207174234D02*
X73044603Y-207174234D01*
X73044603Y-207174234D02*
X73120794Y-207136138D01*
X73120794Y-207136138D02*
X73158889Y-207098043D01*
X73158889Y-207098043D02*
X73196984Y-207021853D01*
X73196984Y-207021853D02*
X73196984Y-206717091D01*
X73044603Y-207859948D02*
X73577937Y-207859948D01*
X73044603Y-207517091D02*
X73463651Y-207517091D01*
X73463651Y-207517091D02*
X73539842Y-207555186D01*
X73539842Y-207555186D02*
X73577937Y-207631376D01*
X73577937Y-207631376D02*
X73577937Y-207745662D01*
X73577937Y-207745662D02*
X73539842Y-207821853D01*
X73539842Y-207821853D02*
X73501746Y-207859948D01*
X73044603Y-208240901D02*
X73577937Y-208240901D01*
X73120794Y-208240901D02*
X73082699Y-208278996D01*
X73082699Y-208278996D02*
X73044603Y-208355186D01*
X73044603Y-208355186D02*
X73044603Y-208469472D01*
X73044603Y-208469472D02*
X73082699Y-208545663D01*
X73082699Y-208545663D02*
X73158889Y-208583758D01*
X73158889Y-208583758D02*
X73577937Y-208583758D01*
X47327286Y-182310353D02*
X47327286Y-182386543D01*
X47327286Y-182386543D02*
X47365381Y-182462734D01*
X47365381Y-182462734D02*
X47403476Y-182500829D01*
X47403476Y-182500829D02*
X47479667Y-182538924D01*
X47479667Y-182538924D02*
X47632048Y-182577019D01*
X47632048Y-182577019D02*
X47822524Y-182577019D01*
X47822524Y-182577019D02*
X47974905Y-182538924D01*
X47974905Y-182538924D02*
X48051095Y-182500829D01*
X48051095Y-182500829D02*
X48089191Y-182462734D01*
X48089191Y-182462734D02*
X48127286Y-182386543D01*
X48127286Y-182386543D02*
X48127286Y-182310353D01*
X48127286Y-182310353D02*
X48089191Y-182234162D01*
X48089191Y-182234162D02*
X48051095Y-182196067D01*
X48051095Y-182196067D02*
X47974905Y-182157972D01*
X47974905Y-182157972D02*
X47822524Y-182119876D01*
X47822524Y-182119876D02*
X47632048Y-182119876D01*
X47632048Y-182119876D02*
X47479667Y-182157972D01*
X47479667Y-182157972D02*
X47403476Y-182196067D01*
X47403476Y-182196067D02*
X47365381Y-182234162D01*
X47365381Y-182234162D02*
X47327286Y-182310353D01*
X62567286Y-182538924D02*
X62567286Y-182157972D01*
X62567286Y-182157972D02*
X62948238Y-182119876D01*
X62948238Y-182119876D02*
X62910143Y-182157972D01*
X62910143Y-182157972D02*
X62872048Y-182234162D01*
X62872048Y-182234162D02*
X62872048Y-182424638D01*
X62872048Y-182424638D02*
X62910143Y-182500829D01*
X62910143Y-182500829D02*
X62948238Y-182538924D01*
X62948238Y-182538924D02*
X63024429Y-182577019D01*
X63024429Y-182577019D02*
X63214905Y-182577019D01*
X63214905Y-182577019D02*
X63291095Y-182538924D01*
X63291095Y-182538924D02*
X63329191Y-182500829D01*
X63329191Y-182500829D02*
X63367286Y-182424638D01*
X63367286Y-182424638D02*
X63367286Y-182234162D01*
X63367286Y-182234162D02*
X63329191Y-182157972D01*
X63329191Y-182157972D02*
X63291095Y-182119876D01*
X73070143Y-182272257D02*
X73032048Y-182196067D01*
X73032048Y-182196067D02*
X72993952Y-182157972D01*
X72993952Y-182157972D02*
X72917762Y-182119876D01*
X72917762Y-182119876D02*
X72879667Y-182119876D01*
X72879667Y-182119876D02*
X72803476Y-182157972D01*
X72803476Y-182157972D02*
X72765381Y-182196067D01*
X72765381Y-182196067D02*
X72727286Y-182272257D01*
X72727286Y-182272257D02*
X72727286Y-182424638D01*
X72727286Y-182424638D02*
X72765381Y-182500829D01*
X72765381Y-182500829D02*
X72803476Y-182538924D01*
X72803476Y-182538924D02*
X72879667Y-182577019D01*
X72879667Y-182577019D02*
X72917762Y-182577019D01*
X72917762Y-182577019D02*
X72993952Y-182538924D01*
X72993952Y-182538924D02*
X73032048Y-182500829D01*
X73032048Y-182500829D02*
X73070143Y-182424638D01*
X73070143Y-182424638D02*
X73070143Y-182272257D01*
X73070143Y-182272257D02*
X73108238Y-182196067D01*
X73108238Y-182196067D02*
X73146333Y-182157972D01*
X73146333Y-182157972D02*
X73222524Y-182119876D01*
X73222524Y-182119876D02*
X73374905Y-182119876D01*
X73374905Y-182119876D02*
X73451095Y-182157972D01*
X73451095Y-182157972D02*
X73489191Y-182196067D01*
X73489191Y-182196067D02*
X73527286Y-182272257D01*
X73527286Y-182272257D02*
X73527286Y-182424638D01*
X73527286Y-182424638D02*
X73489191Y-182500829D01*
X73489191Y-182500829D02*
X73451095Y-182538924D01*
X73451095Y-182538924D02*
X73374905Y-182577019D01*
X73374905Y-182577019D02*
X73222524Y-182577019D01*
X73222524Y-182577019D02*
X73146333Y-182538924D01*
X73146333Y-182538924D02*
X73108238Y-182500829D01*
X73108238Y-182500829D02*
X73070143Y-182424638D01*
X57487286Y-182081781D02*
X57487286Y-182577019D01*
X57487286Y-182577019D02*
X57792048Y-182310353D01*
X57792048Y-182310353D02*
X57792048Y-182424638D01*
X57792048Y-182424638D02*
X57830143Y-182500829D01*
X57830143Y-182500829D02*
X57868238Y-182538924D01*
X57868238Y-182538924D02*
X57944429Y-182577019D01*
X57944429Y-182577019D02*
X58134905Y-182577019D01*
X58134905Y-182577019D02*
X58211095Y-182538924D01*
X58211095Y-182538924D02*
X58249191Y-182500829D01*
X58249191Y-182500829D02*
X58287286Y-182424638D01*
X58287286Y-182424638D02*
X58287286Y-182196067D01*
X58287286Y-182196067D02*
X58249191Y-182119876D01*
X58249191Y-182119876D02*
X58211095Y-182081781D01*
X52496032Y-207136139D02*
X52457937Y-207059949D01*
X52457937Y-207059949D02*
X52457937Y-206945663D01*
X52457937Y-206945663D02*
X52496032Y-206831377D01*
X52496032Y-206831377D02*
X52572222Y-206755187D01*
X52572222Y-206755187D02*
X52648413Y-206717092D01*
X52648413Y-206717092D02*
X52800794Y-206678996D01*
X52800794Y-206678996D02*
X52915080Y-206678996D01*
X52915080Y-206678996D02*
X53067461Y-206717092D01*
X53067461Y-206717092D02*
X53143651Y-206755187D01*
X53143651Y-206755187D02*
X53219842Y-206831377D01*
X53219842Y-206831377D02*
X53257937Y-206945663D01*
X53257937Y-206945663D02*
X53257937Y-207021854D01*
X53257937Y-207021854D02*
X53219842Y-207136139D01*
X53219842Y-207136139D02*
X53181746Y-207174235D01*
X53181746Y-207174235D02*
X52915080Y-207174235D01*
X52915080Y-207174235D02*
X52915080Y-207021854D01*
X47688889Y-206983758D02*
X47726984Y-207098044D01*
X47726984Y-207098044D02*
X47765080Y-207136139D01*
X47765080Y-207136139D02*
X47841270Y-207174235D01*
X47841270Y-207174235D02*
X47955556Y-207174235D01*
X47955556Y-207174235D02*
X48031746Y-207136139D01*
X48031746Y-207136139D02*
X48069842Y-207098044D01*
X48069842Y-207098044D02*
X48107937Y-207021854D01*
X48107937Y-207021854D02*
X48107937Y-206717092D01*
X48107937Y-206717092D02*
X47307937Y-206717092D01*
X47307937Y-206717092D02*
X47307937Y-206983758D01*
X47307937Y-206983758D02*
X47346032Y-207059949D01*
X47346032Y-207059949D02*
X47384127Y-207098044D01*
X47384127Y-207098044D02*
X47460318Y-207136139D01*
X47460318Y-207136139D02*
X47536508Y-207136139D01*
X47536508Y-207136139D02*
X47612699Y-207098044D01*
X47612699Y-207098044D02*
X47650794Y-207059949D01*
X47650794Y-207059949D02*
X47688889Y-206983758D01*
X47688889Y-206983758D02*
X47688889Y-206717092D01*
X47574603Y-207859949D02*
X48107937Y-207859949D01*
X47574603Y-207517092D02*
X47993651Y-207517092D01*
X47993651Y-207517092D02*
X48069842Y-207555187D01*
X48069842Y-207555187D02*
X48107937Y-207631377D01*
X48107937Y-207631377D02*
X48107937Y-207745663D01*
X48107937Y-207745663D02*
X48069842Y-207821854D01*
X48069842Y-207821854D02*
X48031746Y-207859949D01*
X48069842Y-208202806D02*
X48107937Y-208278997D01*
X48107937Y-208278997D02*
X48107937Y-208431378D01*
X48107937Y-208431378D02*
X48069842Y-208507568D01*
X48069842Y-208507568D02*
X47993651Y-208545664D01*
X47993651Y-208545664D02*
X47955556Y-208545664D01*
X47955556Y-208545664D02*
X47879365Y-208507568D01*
X47879365Y-208507568D02*
X47841270Y-208431378D01*
X47841270Y-208431378D02*
X47841270Y-208317092D01*
X47841270Y-208317092D02*
X47803175Y-208240902D01*
X47803175Y-208240902D02*
X47726984Y-208202806D01*
X47726984Y-208202806D02*
X47688889Y-208202806D01*
X47688889Y-208202806D02*
X47612699Y-208240902D01*
X47612699Y-208240902D02*
X47574603Y-208317092D01*
X47574603Y-208317092D02*
X47574603Y-208431378D01*
X47574603Y-208431378D02*
X47612699Y-208507568D01*
X98480200Y-188508285D02*
X98518295Y-188622571D01*
X98518295Y-188622571D02*
X98518295Y-188813047D01*
X98518295Y-188813047D02*
X98480200Y-188889238D01*
X98480200Y-188889238D02*
X98442104Y-188927333D01*
X98442104Y-188927333D02*
X98365914Y-188965428D01*
X98365914Y-188965428D02*
X98289723Y-188965428D01*
X98289723Y-188965428D02*
X98213533Y-188927333D01*
X98213533Y-188927333D02*
X98175438Y-188889238D01*
X98175438Y-188889238D02*
X98137342Y-188813047D01*
X98137342Y-188813047D02*
X98099247Y-188660666D01*
X98099247Y-188660666D02*
X98061152Y-188584476D01*
X98061152Y-188584476D02*
X98023057Y-188546381D01*
X98023057Y-188546381D02*
X97946866Y-188508285D01*
X97946866Y-188508285D02*
X97870676Y-188508285D01*
X97870676Y-188508285D02*
X97794485Y-188546381D01*
X97794485Y-188546381D02*
X97756390Y-188584476D01*
X97756390Y-188584476D02*
X97718295Y-188660666D01*
X97718295Y-188660666D02*
X97718295Y-188851143D01*
X97718295Y-188851143D02*
X97756390Y-188965428D01*
X97718295Y-189232095D02*
X98518295Y-189422571D01*
X98518295Y-189422571D02*
X97946866Y-189574952D01*
X97946866Y-189574952D02*
X98518295Y-189727333D01*
X98518295Y-189727333D02*
X97718295Y-189917810D01*
X98442104Y-190679715D02*
X98480200Y-190641619D01*
X98480200Y-190641619D02*
X98518295Y-190527334D01*
X98518295Y-190527334D02*
X98518295Y-190451143D01*
X98518295Y-190451143D02*
X98480200Y-190336857D01*
X98480200Y-190336857D02*
X98404009Y-190260667D01*
X98404009Y-190260667D02*
X98327819Y-190222572D01*
X98327819Y-190222572D02*
X98175438Y-190184476D01*
X98175438Y-190184476D02*
X98061152Y-190184476D01*
X98061152Y-190184476D02*
X97908771Y-190222572D01*
X97908771Y-190222572D02*
X97832580Y-190260667D01*
X97832580Y-190260667D02*
X97756390Y-190336857D01*
X97756390Y-190336857D02*
X97718295Y-190451143D01*
X97718295Y-190451143D02*
X97718295Y-190527334D01*
X97718295Y-190527334D02*
X97756390Y-190641619D01*
X97756390Y-190641619D02*
X97794485Y-190679715D01*
X93847286Y-181926693D02*
X93847286Y-181469550D01*
X93847286Y-181698122D02*
X93047286Y-181698122D01*
X93047286Y-181698122D02*
X93161571Y-181621931D01*
X93161571Y-181621931D02*
X93237762Y-181545741D01*
X93237762Y-181545741D02*
X93275857Y-181469550D01*
X93313952Y-182612408D02*
X93847286Y-182612408D01*
X93009191Y-182421932D02*
X93580619Y-182231455D01*
X93580619Y-182231455D02*
X93580619Y-182726694D01*
X60293952Y-182500829D02*
X60827286Y-182500829D01*
X59989191Y-182310353D02*
X60560619Y-182119876D01*
X60560619Y-182119876D02*
X60560619Y-182615115D01*
X96437937Y-207136139D02*
X96437937Y-206678996D01*
X96437937Y-206907568D02*
X95637937Y-206907568D01*
X95637937Y-206907568D02*
X95752222Y-206831377D01*
X95752222Y-206831377D02*
X95828413Y-206755187D01*
X95828413Y-206755187D02*
X95866508Y-206678996D01*
X95637937Y-207821854D02*
X95637937Y-207669473D01*
X95637937Y-207669473D02*
X95676032Y-207593282D01*
X95676032Y-207593282D02*
X95714127Y-207555187D01*
X95714127Y-207555187D02*
X95828413Y-207478997D01*
X95828413Y-207478997D02*
X95980794Y-207440901D01*
X95980794Y-207440901D02*
X96285556Y-207440901D01*
X96285556Y-207440901D02*
X96361746Y-207478997D01*
X96361746Y-207478997D02*
X96399842Y-207517092D01*
X96399842Y-207517092D02*
X96437937Y-207593282D01*
X96437937Y-207593282D02*
X96437937Y-207745663D01*
X96437937Y-207745663D02*
X96399842Y-207821854D01*
X96399842Y-207821854D02*
X96361746Y-207859949D01*
X96361746Y-207859949D02*
X96285556Y-207898044D01*
X96285556Y-207898044D02*
X96095080Y-207898044D01*
X96095080Y-207898044D02*
X96018889Y-207859949D01*
X96018889Y-207859949D02*
X95980794Y-207821854D01*
X95980794Y-207821854D02*
X95942699Y-207745663D01*
X95942699Y-207745663D02*
X95942699Y-207593282D01*
X95942699Y-207593282D02*
X95980794Y-207517092D01*
X95980794Y-207517092D02*
X96018889Y-207478997D01*
X96018889Y-207478997D02*
X96095080Y-207440901D01*
X86277937Y-207136139D02*
X86277937Y-206678996D01*
X86277937Y-206907568D02*
X85477937Y-206907568D01*
X85477937Y-206907568D02*
X85592222Y-206831377D01*
X85592222Y-206831377D02*
X85668413Y-206755187D01*
X85668413Y-206755187D02*
X85706508Y-206678996D01*
X86277937Y-207517092D02*
X86277937Y-207669473D01*
X86277937Y-207669473D02*
X86239842Y-207745663D01*
X86239842Y-207745663D02*
X86201746Y-207783759D01*
X86201746Y-207783759D02*
X86087461Y-207859949D01*
X86087461Y-207859949D02*
X85935080Y-207898044D01*
X85935080Y-207898044D02*
X85630318Y-207898044D01*
X85630318Y-207898044D02*
X85554127Y-207859949D01*
X85554127Y-207859949D02*
X85516032Y-207821854D01*
X85516032Y-207821854D02*
X85477937Y-207745663D01*
X85477937Y-207745663D02*
X85477937Y-207593282D01*
X85477937Y-207593282D02*
X85516032Y-207517092D01*
X85516032Y-207517092D02*
X85554127Y-207478997D01*
X85554127Y-207478997D02*
X85630318Y-207440901D01*
X85630318Y-207440901D02*
X85820794Y-207440901D01*
X85820794Y-207440901D02*
X85896984Y-207478997D01*
X85896984Y-207478997D02*
X85935080Y-207517092D01*
X85935080Y-207517092D02*
X85973175Y-207593282D01*
X85973175Y-207593282D02*
X85973175Y-207745663D01*
X85973175Y-207745663D02*
X85935080Y-207821854D01*
X85935080Y-207821854D02*
X85896984Y-207859949D01*
X85896984Y-207859949D02*
X85820794Y-207898044D01*
X67647286Y-182500829D02*
X67647286Y-182348448D01*
X67647286Y-182348448D02*
X67685381Y-182272257D01*
X67685381Y-182272257D02*
X67723476Y-182234162D01*
X67723476Y-182234162D02*
X67837762Y-182157972D01*
X67837762Y-182157972D02*
X67990143Y-182119876D01*
X67990143Y-182119876D02*
X68294905Y-182119876D01*
X68294905Y-182119876D02*
X68371095Y-182157972D01*
X68371095Y-182157972D02*
X68409191Y-182196067D01*
X68409191Y-182196067D02*
X68447286Y-182272257D01*
X68447286Y-182272257D02*
X68447286Y-182424638D01*
X68447286Y-182424638D02*
X68409191Y-182500829D01*
X68409191Y-182500829D02*
X68371095Y-182538924D01*
X68371095Y-182538924D02*
X68294905Y-182577019D01*
X68294905Y-182577019D02*
X68104429Y-182577019D01*
X68104429Y-182577019D02*
X68028238Y-182538924D01*
X68028238Y-182538924D02*
X67990143Y-182500829D01*
X67990143Y-182500829D02*
X67952048Y-182424638D01*
X67952048Y-182424638D02*
X67952048Y-182272257D01*
X67952048Y-182272257D02*
X67990143Y-182196067D01*
X67990143Y-182196067D02*
X68028238Y-182157972D01*
X68028238Y-182157972D02*
X68104429Y-182119876D01*
X98480200Y-198668285D02*
X98518295Y-198782571D01*
X98518295Y-198782571D02*
X98518295Y-198973047D01*
X98518295Y-198973047D02*
X98480200Y-199049238D01*
X98480200Y-199049238D02*
X98442104Y-199087333D01*
X98442104Y-199087333D02*
X98365914Y-199125428D01*
X98365914Y-199125428D02*
X98289723Y-199125428D01*
X98289723Y-199125428D02*
X98213533Y-199087333D01*
X98213533Y-199087333D02*
X98175438Y-199049238D01*
X98175438Y-199049238D02*
X98137342Y-198973047D01*
X98137342Y-198973047D02*
X98099247Y-198820666D01*
X98099247Y-198820666D02*
X98061152Y-198744476D01*
X98061152Y-198744476D02*
X98023057Y-198706381D01*
X98023057Y-198706381D02*
X97946866Y-198668285D01*
X97946866Y-198668285D02*
X97870676Y-198668285D01*
X97870676Y-198668285D02*
X97794485Y-198706381D01*
X97794485Y-198706381D02*
X97756390Y-198744476D01*
X97756390Y-198744476D02*
X97718295Y-198820666D01*
X97718295Y-198820666D02*
X97718295Y-199011143D01*
X97718295Y-199011143D02*
X97756390Y-199125428D01*
X97718295Y-199392095D02*
X98518295Y-199582571D01*
X98518295Y-199582571D02*
X97946866Y-199734952D01*
X97946866Y-199734952D02*
X98518295Y-199887333D01*
X98518295Y-199887333D02*
X97718295Y-200077810D01*
X98518295Y-200382572D02*
X97718295Y-200382572D01*
X97718295Y-200382572D02*
X97718295Y-200573048D01*
X97718295Y-200573048D02*
X97756390Y-200687334D01*
X97756390Y-200687334D02*
X97832580Y-200763524D01*
X97832580Y-200763524D02*
X97908771Y-200801619D01*
X97908771Y-200801619D02*
X98061152Y-200839715D01*
X98061152Y-200839715D02*
X98175438Y-200839715D01*
X98175438Y-200839715D02*
X98327819Y-200801619D01*
X98327819Y-200801619D02*
X98404009Y-200763524D01*
X98404009Y-200763524D02*
X98480200Y-200687334D01*
X98480200Y-200687334D02*
X98518295Y-200573048D01*
X98518295Y-200573048D02*
X98518295Y-200382572D01*
X96387286Y-181926693D02*
X96387286Y-181469550D01*
X96387286Y-181698122D02*
X95587286Y-181698122D01*
X95587286Y-181698122D02*
X95701571Y-181621931D01*
X95701571Y-181621931D02*
X95777762Y-181545741D01*
X95777762Y-181545741D02*
X95815857Y-181469550D01*
X95587286Y-182650503D02*
X95587286Y-182269551D01*
X95587286Y-182269551D02*
X95968238Y-182231455D01*
X95968238Y-182231455D02*
X95930143Y-182269551D01*
X95930143Y-182269551D02*
X95892048Y-182345741D01*
X95892048Y-182345741D02*
X95892048Y-182536217D01*
X95892048Y-182536217D02*
X95930143Y-182612408D01*
X95930143Y-182612408D02*
X95968238Y-182650503D01*
X95968238Y-182650503D02*
X96044429Y-182688598D01*
X96044429Y-182688598D02*
X96234905Y-182688598D01*
X96234905Y-182688598D02*
X96311095Y-182650503D01*
X96311095Y-182650503D02*
X96349191Y-182612408D01*
X96349191Y-182612408D02*
X96387286Y-182536217D01*
X96387286Y-182536217D02*
X96387286Y-182345741D01*
X96387286Y-182345741D02*
X96349191Y-182269551D01*
X96349191Y-182269551D02*
X96311095Y-182231455D01*
X60888295Y-207174235D02*
X60507342Y-206907568D01*
X60888295Y-206717092D02*
X60088295Y-206717092D01*
X60088295Y-206717092D02*
X60088295Y-207021854D01*
X60088295Y-207021854D02*
X60126390Y-207098044D01*
X60126390Y-207098044D02*
X60164485Y-207136139D01*
X60164485Y-207136139D02*
X60240676Y-207174235D01*
X60240676Y-207174235D02*
X60354961Y-207174235D01*
X60354961Y-207174235D02*
X60431152Y-207136139D01*
X60431152Y-207136139D02*
X60469247Y-207098044D01*
X60469247Y-207098044D02*
X60507342Y-207021854D01*
X60507342Y-207021854D02*
X60507342Y-206717092D01*
X60850200Y-207821854D02*
X60888295Y-207745663D01*
X60888295Y-207745663D02*
X60888295Y-207593282D01*
X60888295Y-207593282D02*
X60850200Y-207517092D01*
X60850200Y-207517092D02*
X60774009Y-207478996D01*
X60774009Y-207478996D02*
X60469247Y-207478996D01*
X60469247Y-207478996D02*
X60393057Y-207517092D01*
X60393057Y-207517092D02*
X60354961Y-207593282D01*
X60354961Y-207593282D02*
X60354961Y-207745663D01*
X60354961Y-207745663D02*
X60393057Y-207821854D01*
X60393057Y-207821854D02*
X60469247Y-207859949D01*
X60469247Y-207859949D02*
X60545438Y-207859949D01*
X60545438Y-207859949D02*
X60621628Y-207478996D01*
X60354961Y-208088520D02*
X60354961Y-208393282D01*
X60888295Y-208202806D02*
X60202580Y-208202806D01*
X60202580Y-208202806D02*
X60126390Y-208240901D01*
X60126390Y-208240901D02*
X60088295Y-208317091D01*
X60088295Y-208317091D02*
X60088295Y-208393282D01*
X75394127Y-206678996D02*
X75356032Y-206717092D01*
X75356032Y-206717092D02*
X75317937Y-206793282D01*
X75317937Y-206793282D02*
X75317937Y-206983758D01*
X75317937Y-206983758D02*
X75356032Y-207059949D01*
X75356032Y-207059949D02*
X75394127Y-207098044D01*
X75394127Y-207098044D02*
X75470318Y-207136139D01*
X75470318Y-207136139D02*
X75546508Y-207136139D01*
X75546508Y-207136139D02*
X75660794Y-207098044D01*
X75660794Y-207098044D02*
X76117937Y-206640901D01*
X76117937Y-206640901D02*
X76117937Y-207136139D01*
X75394127Y-207440901D02*
X75356032Y-207478997D01*
X75356032Y-207478997D02*
X75317937Y-207555187D01*
X75317937Y-207555187D02*
X75317937Y-207745663D01*
X75317937Y-207745663D02*
X75356032Y-207821854D01*
X75356032Y-207821854D02*
X75394127Y-207859949D01*
X75394127Y-207859949D02*
X75470318Y-207898044D01*
X75470318Y-207898044D02*
X75546508Y-207898044D01*
X75546508Y-207898044D02*
X75660794Y-207859949D01*
X75660794Y-207859949D02*
X76117937Y-207402806D01*
X76117937Y-207402806D02*
X76117937Y-207898044D01*
X76067286Y-182196067D02*
X76067286Y-182348448D01*
X76067286Y-182348448D02*
X76029191Y-182424638D01*
X76029191Y-182424638D02*
X75991095Y-182462734D01*
X75991095Y-182462734D02*
X75876810Y-182538924D01*
X75876810Y-182538924D02*
X75724429Y-182577019D01*
X75724429Y-182577019D02*
X75419667Y-182577019D01*
X75419667Y-182577019D02*
X75343476Y-182538924D01*
X75343476Y-182538924D02*
X75305381Y-182500829D01*
X75305381Y-182500829D02*
X75267286Y-182424638D01*
X75267286Y-182424638D02*
X75267286Y-182272257D01*
X75267286Y-182272257D02*
X75305381Y-182196067D01*
X75305381Y-182196067D02*
X75343476Y-182157972D01*
X75343476Y-182157972D02*
X75419667Y-182119876D01*
X75419667Y-182119876D02*
X75610143Y-182119876D01*
X75610143Y-182119876D02*
X75686333Y-182157972D01*
X75686333Y-182157972D02*
X75724429Y-182196067D01*
X75724429Y-182196067D02*
X75762524Y-182272257D01*
X75762524Y-182272257D02*
X75762524Y-182424638D01*
X75762524Y-182424638D02*
X75724429Y-182500829D01*
X75724429Y-182500829D02*
X75686333Y-182538924D01*
X75686333Y-182538924D02*
X75610143Y-182577019D01*
X90545381Y-182544503D02*
X90507286Y-182468313D01*
X90507286Y-182468313D02*
X90507286Y-182354027D01*
X90507286Y-182354027D02*
X90545381Y-182239741D01*
X90545381Y-182239741D02*
X90621571Y-182163551D01*
X90621571Y-182163551D02*
X90697762Y-182125456D01*
X90697762Y-182125456D02*
X90850143Y-182087360D01*
X90850143Y-182087360D02*
X90964429Y-182087360D01*
X90964429Y-182087360D02*
X91116810Y-182125456D01*
X91116810Y-182125456D02*
X91193000Y-182163551D01*
X91193000Y-182163551D02*
X91269191Y-182239741D01*
X91269191Y-182239741D02*
X91307286Y-182354027D01*
X91307286Y-182354027D02*
X91307286Y-182430218D01*
X91307286Y-182430218D02*
X91269191Y-182544503D01*
X91269191Y-182544503D02*
X91231095Y-182582599D01*
X91231095Y-182582599D02*
X90964429Y-182582599D01*
X90964429Y-182582599D02*
X90964429Y-182430218D01*
X57607937Y-206640901D02*
X57607937Y-207136139D01*
X57607937Y-207136139D02*
X57912699Y-206869473D01*
X57912699Y-206869473D02*
X57912699Y-206983758D01*
X57912699Y-206983758D02*
X57950794Y-207059949D01*
X57950794Y-207059949D02*
X57988889Y-207098044D01*
X57988889Y-207098044D02*
X58065080Y-207136139D01*
X58065080Y-207136139D02*
X58255556Y-207136139D01*
X58255556Y-207136139D02*
X58331746Y-207098044D01*
X58331746Y-207098044D02*
X58369842Y-207059949D01*
X58369842Y-207059949D02*
X58407937Y-206983758D01*
X58407937Y-206983758D02*
X58407937Y-206755187D01*
X58407937Y-206755187D02*
X58369842Y-206678996D01*
X58369842Y-206678996D02*
X58331746Y-206640901D01*
X58331746Y-207478997D02*
X58369842Y-207517092D01*
X58369842Y-207517092D02*
X58407937Y-207478997D01*
X58407937Y-207478997D02*
X58369842Y-207440901D01*
X58369842Y-207440901D02*
X58331746Y-207478997D01*
X58331746Y-207478997D02*
X58407937Y-207478997D01*
X57607937Y-207783758D02*
X57607937Y-208278996D01*
X57607937Y-208278996D02*
X57912699Y-208012330D01*
X57912699Y-208012330D02*
X57912699Y-208126615D01*
X57912699Y-208126615D02*
X57950794Y-208202806D01*
X57950794Y-208202806D02*
X57988889Y-208240901D01*
X57988889Y-208240901D02*
X58065080Y-208278996D01*
X58065080Y-208278996D02*
X58255556Y-208278996D01*
X58255556Y-208278996D02*
X58331746Y-208240901D01*
X58331746Y-208240901D02*
X58369842Y-208202806D01*
X58369842Y-208202806D02*
X58407937Y-208126615D01*
X58407937Y-208126615D02*
X58407937Y-207898044D01*
X58407937Y-207898044D02*
X58369842Y-207821853D01*
X58369842Y-207821853D02*
X58331746Y-207783758D01*
X83014127Y-206678996D02*
X82976032Y-206717092D01*
X82976032Y-206717092D02*
X82937937Y-206793282D01*
X82937937Y-206793282D02*
X82937937Y-206983758D01*
X82937937Y-206983758D02*
X82976032Y-207059949D01*
X82976032Y-207059949D02*
X83014127Y-207098044D01*
X83014127Y-207098044D02*
X83090318Y-207136139D01*
X83090318Y-207136139D02*
X83166508Y-207136139D01*
X83166508Y-207136139D02*
X83280794Y-207098044D01*
X83280794Y-207098044D02*
X83737937Y-206640901D01*
X83737937Y-206640901D02*
X83737937Y-207136139D01*
X82937937Y-207631378D02*
X82937937Y-207707568D01*
X82937937Y-207707568D02*
X82976032Y-207783759D01*
X82976032Y-207783759D02*
X83014127Y-207821854D01*
X83014127Y-207821854D02*
X83090318Y-207859949D01*
X83090318Y-207859949D02*
X83242699Y-207898044D01*
X83242699Y-207898044D02*
X83433175Y-207898044D01*
X83433175Y-207898044D02*
X83585556Y-207859949D01*
X83585556Y-207859949D02*
X83661746Y-207821854D01*
X83661746Y-207821854D02*
X83699842Y-207783759D01*
X83699842Y-207783759D02*
X83737937Y-207707568D01*
X83737937Y-207707568D02*
X83737937Y-207631378D01*
X83737937Y-207631378D02*
X83699842Y-207555187D01*
X83699842Y-207555187D02*
X83661746Y-207517092D01*
X83661746Y-207517092D02*
X83585556Y-207478997D01*
X83585556Y-207478997D02*
X83433175Y-207440901D01*
X83433175Y-207440901D02*
X83242699Y-207440901D01*
X83242699Y-207440901D02*
X83090318Y-207478997D01*
X83090318Y-207478997D02*
X83014127Y-207517092D01*
X83014127Y-207517092D02*
X82976032Y-207555187D01*
X82976032Y-207555187D02*
X82937937Y-207631378D01*
X77896032Y-207136139D02*
X77857937Y-207059949D01*
X77857937Y-207059949D02*
X77857937Y-206945663D01*
X77857937Y-206945663D02*
X77896032Y-206831377D01*
X77896032Y-206831377D02*
X77972222Y-206755187D01*
X77972222Y-206755187D02*
X78048413Y-206717092D01*
X78048413Y-206717092D02*
X78200794Y-206678996D01*
X78200794Y-206678996D02*
X78315080Y-206678996D01*
X78315080Y-206678996D02*
X78467461Y-206717092D01*
X78467461Y-206717092D02*
X78543651Y-206755187D01*
X78543651Y-206755187D02*
X78619842Y-206831377D01*
X78619842Y-206831377D02*
X78657937Y-206945663D01*
X78657937Y-206945663D02*
X78657937Y-207021854D01*
X78657937Y-207021854D02*
X78619842Y-207136139D01*
X78619842Y-207136139D02*
X78581746Y-207174235D01*
X78581746Y-207174235D02*
X78315080Y-207174235D01*
X78315080Y-207174235D02*
X78315080Y-207021854D01*
X70314127Y-206678996D02*
X70276032Y-206717092D01*
X70276032Y-206717092D02*
X70237937Y-206793282D01*
X70237937Y-206793282D02*
X70237937Y-206983758D01*
X70237937Y-206983758D02*
X70276032Y-207059949D01*
X70276032Y-207059949D02*
X70314127Y-207098044D01*
X70314127Y-207098044D02*
X70390318Y-207136139D01*
X70390318Y-207136139D02*
X70466508Y-207136139D01*
X70466508Y-207136139D02*
X70580794Y-207098044D01*
X70580794Y-207098044D02*
X71037937Y-206640901D01*
X71037937Y-206640901D02*
X71037937Y-207136139D01*
X70237937Y-207821854D02*
X70237937Y-207669473D01*
X70237937Y-207669473D02*
X70276032Y-207593282D01*
X70276032Y-207593282D02*
X70314127Y-207555187D01*
X70314127Y-207555187D02*
X70428413Y-207478997D01*
X70428413Y-207478997D02*
X70580794Y-207440901D01*
X70580794Y-207440901D02*
X70885556Y-207440901D01*
X70885556Y-207440901D02*
X70961746Y-207478997D01*
X70961746Y-207478997D02*
X70999842Y-207517092D01*
X70999842Y-207517092D02*
X71037937Y-207593282D01*
X71037937Y-207593282D02*
X71037937Y-207745663D01*
X71037937Y-207745663D02*
X70999842Y-207821854D01*
X70999842Y-207821854D02*
X70961746Y-207859949D01*
X70961746Y-207859949D02*
X70885556Y-207898044D01*
X70885556Y-207898044D02*
X70695080Y-207898044D01*
X70695080Y-207898044D02*
X70618889Y-207859949D01*
X70618889Y-207859949D02*
X70580794Y-207821854D01*
X70580794Y-207821854D02*
X70542699Y-207745663D01*
X70542699Y-207745663D02*
X70542699Y-207593282D01*
X70542699Y-207593282D02*
X70580794Y-207517092D01*
X70580794Y-207517092D02*
X70618889Y-207478997D01*
X70618889Y-207478997D02*
X70695080Y-207440901D01*
X93897937Y-207136139D02*
X93897937Y-206678996D01*
X93897937Y-206907568D02*
X93097937Y-206907568D01*
X93097937Y-206907568D02*
X93212222Y-206831377D01*
X93212222Y-206831377D02*
X93288413Y-206755187D01*
X93288413Y-206755187D02*
X93326508Y-206678996D01*
X93097937Y-207402806D02*
X93097937Y-207936140D01*
X93097937Y-207936140D02*
X93897937Y-207593282D01*
X81147286Y-181926693D02*
X81147286Y-181469550D01*
X81147286Y-181698122D02*
X80347286Y-181698122D01*
X80347286Y-181698122D02*
X80461571Y-181621931D01*
X80461571Y-181621931D02*
X80537762Y-181545741D01*
X80537762Y-181545741D02*
X80575857Y-181469550D01*
X80347286Y-182421932D02*
X80347286Y-182498122D01*
X80347286Y-182498122D02*
X80385381Y-182574313D01*
X80385381Y-182574313D02*
X80423476Y-182612408D01*
X80423476Y-182612408D02*
X80499667Y-182650503D01*
X80499667Y-182650503D02*
X80652048Y-182688598D01*
X80652048Y-182688598D02*
X80842524Y-182688598D01*
X80842524Y-182688598D02*
X80994905Y-182650503D01*
X80994905Y-182650503D02*
X81071095Y-182612408D01*
X81071095Y-182612408D02*
X81109191Y-182574313D01*
X81109191Y-182574313D02*
X81147286Y-182498122D01*
X81147286Y-182498122D02*
X81147286Y-182421932D01*
X81147286Y-182421932D02*
X81109191Y-182345741D01*
X81109191Y-182345741D02*
X81071095Y-182307646D01*
X81071095Y-182307646D02*
X80994905Y-182269551D01*
X80994905Y-182269551D02*
X80842524Y-182231455D01*
X80842524Y-182231455D02*
X80652048Y-182231455D01*
X80652048Y-182231455D02*
X80499667Y-182269551D01*
X80499667Y-182269551D02*
X80423476Y-182307646D01*
X80423476Y-182307646D02*
X80385381Y-182345741D01*
X80385381Y-182345741D02*
X80347286Y-182421932D01*
X77845381Y-182544503D02*
X77807286Y-182468313D01*
X77807286Y-182468313D02*
X77807286Y-182354027D01*
X77807286Y-182354027D02*
X77845381Y-182239741D01*
X77845381Y-182239741D02*
X77921571Y-182163551D01*
X77921571Y-182163551D02*
X77997762Y-182125456D01*
X77997762Y-182125456D02*
X78150143Y-182087360D01*
X78150143Y-182087360D02*
X78264429Y-182087360D01*
X78264429Y-182087360D02*
X78416810Y-182125456D01*
X78416810Y-182125456D02*
X78493000Y-182163551D01*
X78493000Y-182163551D02*
X78569191Y-182239741D01*
X78569191Y-182239741D02*
X78607286Y-182354027D01*
X78607286Y-182354027D02*
X78607286Y-182430218D01*
X78607286Y-182430218D02*
X78569191Y-182544503D01*
X78569191Y-182544503D02*
X78531095Y-182582599D01*
X78531095Y-182582599D02*
X78264429Y-182582599D01*
X78264429Y-182582599D02*
X78264429Y-182430218D01*
X55008295Y-206640901D02*
X55008295Y-207136139D01*
X55008295Y-207136139D02*
X55313057Y-206869473D01*
X55313057Y-206869473D02*
X55313057Y-206983758D01*
X55313057Y-206983758D02*
X55351152Y-207059949D01*
X55351152Y-207059949D02*
X55389247Y-207098044D01*
X55389247Y-207098044D02*
X55465438Y-207136139D01*
X55465438Y-207136139D02*
X55655914Y-207136139D01*
X55655914Y-207136139D02*
X55732104Y-207098044D01*
X55732104Y-207098044D02*
X55770200Y-207059949D01*
X55770200Y-207059949D02*
X55808295Y-206983758D01*
X55808295Y-206983758D02*
X55808295Y-206755187D01*
X55808295Y-206755187D02*
X55770200Y-206678996D01*
X55770200Y-206678996D02*
X55732104Y-206640901D01*
X55389247Y-207478997D02*
X55389247Y-207745663D01*
X55808295Y-207859949D02*
X55808295Y-207478997D01*
X55808295Y-207478997D02*
X55008295Y-207478997D01*
X55008295Y-207478997D02*
X55008295Y-207859949D01*
X55274961Y-208202807D02*
X55808295Y-208202807D01*
X55351152Y-208202807D02*
X55313057Y-208240902D01*
X55313057Y-208240902D02*
X55274961Y-208317092D01*
X55274961Y-208317092D02*
X55274961Y-208431378D01*
X55274961Y-208431378D02*
X55313057Y-208507569D01*
X55313057Y-208507569D02*
X55389247Y-208545664D01*
X55389247Y-208545664D02*
X55808295Y-208545664D01*
X90596032Y-207136139D02*
X90557937Y-207059949D01*
X90557937Y-207059949D02*
X90557937Y-206945663D01*
X90557937Y-206945663D02*
X90596032Y-206831377D01*
X90596032Y-206831377D02*
X90672222Y-206755187D01*
X90672222Y-206755187D02*
X90748413Y-206717092D01*
X90748413Y-206717092D02*
X90900794Y-206678996D01*
X90900794Y-206678996D02*
X91015080Y-206678996D01*
X91015080Y-206678996D02*
X91167461Y-206717092D01*
X91167461Y-206717092D02*
X91243651Y-206755187D01*
X91243651Y-206755187D02*
X91319842Y-206831377D01*
X91319842Y-206831377D02*
X91357937Y-206945663D01*
X91357937Y-206945663D02*
X91357937Y-207021854D01*
X91357937Y-207021854D02*
X91319842Y-207136139D01*
X91319842Y-207136139D02*
X91281746Y-207174235D01*
X91281746Y-207174235D02*
X91015080Y-207174235D01*
X91015080Y-207174235D02*
X91015080Y-207021854D01*
X55023476Y-182119876D02*
X54985381Y-182157972D01*
X54985381Y-182157972D02*
X54947286Y-182234162D01*
X54947286Y-182234162D02*
X54947286Y-182424638D01*
X54947286Y-182424638D02*
X54985381Y-182500829D01*
X54985381Y-182500829D02*
X55023476Y-182538924D01*
X55023476Y-182538924D02*
X55099667Y-182577019D01*
X55099667Y-182577019D02*
X55175857Y-182577019D01*
X55175857Y-182577019D02*
X55290143Y-182538924D01*
X55290143Y-182538924D02*
X55747286Y-182081781D01*
X55747286Y-182081781D02*
X55747286Y-182577019D01*
X304607904Y-198638819D02*
X304607904Y-199448342D01*
X304607904Y-199448342D02*
X304560285Y-199543580D01*
X304560285Y-199543580D02*
X304512666Y-199591200D01*
X304512666Y-199591200D02*
X304417428Y-199638819D01*
X304417428Y-199638819D02*
X304226952Y-199638819D01*
X304226952Y-199638819D02*
X304131714Y-199591200D01*
X304131714Y-199591200D02*
X304084095Y-199543580D01*
X304084095Y-199543580D02*
X304036476Y-199448342D01*
X304036476Y-199448342D02*
X304036476Y-198638819D01*
X303131714Y-198972152D02*
X303131714Y-199638819D01*
X303369809Y-198591200D02*
X303607904Y-199305485D01*
X303607904Y-199305485D02*
X302988857Y-199305485D01*
X96252666Y-94703580D02*
X96300285Y-94751200D01*
X96300285Y-94751200D02*
X96443142Y-94798819D01*
X96443142Y-94798819D02*
X96538380Y-94798819D01*
X96538380Y-94798819D02*
X96681237Y-94751200D01*
X96681237Y-94751200D02*
X96776475Y-94655961D01*
X96776475Y-94655961D02*
X96824094Y-94560723D01*
X96824094Y-94560723D02*
X96871713Y-94370247D01*
X96871713Y-94370247D02*
X96871713Y-94227390D01*
X96871713Y-94227390D02*
X96824094Y-94036914D01*
X96824094Y-94036914D02*
X96776475Y-93941676D01*
X96776475Y-93941676D02*
X96681237Y-93846438D01*
X96681237Y-93846438D02*
X96538380Y-93798819D01*
X96538380Y-93798819D02*
X96443142Y-93798819D01*
X96443142Y-93798819D02*
X96300285Y-93846438D01*
X96300285Y-93846438D02*
X96252666Y-93894057D01*
X95300285Y-94798819D02*
X95871713Y-94798819D01*
X95585999Y-94798819D02*
X95585999Y-93798819D01*
X95585999Y-93798819D02*
X95681237Y-93941676D01*
X95681237Y-93941676D02*
X95776475Y-94036914D01*
X95776475Y-94036914D02*
X95871713Y-94084533D01*
X442935557Y-94703580D02*
X442983176Y-94751200D01*
X442983176Y-94751200D02*
X443126033Y-94798819D01*
X443126033Y-94798819D02*
X443221271Y-94798819D01*
X443221271Y-94798819D02*
X443364128Y-94751200D01*
X443364128Y-94751200D02*
X443459366Y-94655961D01*
X443459366Y-94655961D02*
X443506985Y-94560723D01*
X443506985Y-94560723D02*
X443554604Y-94370247D01*
X443554604Y-94370247D02*
X443554604Y-94227390D01*
X443554604Y-94227390D02*
X443506985Y-94036914D01*
X443506985Y-94036914D02*
X443459366Y-93941676D01*
X443459366Y-93941676D02*
X443364128Y-93846438D01*
X443364128Y-93846438D02*
X443221271Y-93798819D01*
X443221271Y-93798819D02*
X443126033Y-93798819D01*
X443126033Y-93798819D02*
X442983176Y-93846438D01*
X442983176Y-93846438D02*
X442935557Y-93894057D01*
X441983176Y-94798819D02*
X442554604Y-94798819D01*
X442268890Y-94798819D02*
X442268890Y-93798819D01*
X442268890Y-93798819D02*
X442364128Y-93941676D01*
X442364128Y-93941676D02*
X442459366Y-94036914D01*
X442459366Y-94036914D02*
X442554604Y-94084533D01*
X441364128Y-93798819D02*
X441268890Y-93798819D01*
X441268890Y-93798819D02*
X441173652Y-93846438D01*
X441173652Y-93846438D02*
X441126033Y-93894057D01*
X441126033Y-93894057D02*
X441078414Y-93989295D01*
X441078414Y-93989295D02*
X441030795Y-94179771D01*
X441030795Y-94179771D02*
X441030795Y-94417866D01*
X441030795Y-94417866D02*
X441078414Y-94608342D01*
X441078414Y-94608342D02*
X441126033Y-94703580D01*
X441126033Y-94703580D02*
X441173652Y-94751200D01*
X441173652Y-94751200D02*
X441268890Y-94798819D01*
X441268890Y-94798819D02*
X441364128Y-94798819D01*
X441364128Y-94798819D02*
X441459366Y-94751200D01*
X441459366Y-94751200D02*
X441506985Y-94703580D01*
X441506985Y-94703580D02*
X441554604Y-94608342D01*
X441554604Y-94608342D02*
X441602223Y-94417866D01*
X441602223Y-94417866D02*
X441602223Y-94179771D01*
X441602223Y-94179771D02*
X441554604Y-93989295D01*
X441554604Y-93989295D02*
X441506985Y-93894057D01*
X441506985Y-93894057D02*
X441459366Y-93846438D01*
X441459366Y-93846438D02*
X441364128Y-93798819D01*
D10*
X290127280Y-94349869D02*
X290127280Y-95111774D01*
X290508233Y-94730821D02*
X289746328Y-94730821D01*
D12*
%TO.C,U8*%
X44306000Y-90534000D02*
X44306000Y-91534000D01*
X44306000Y-90534000D02*
X45556000Y-90534000D01*
D13*
X45756000Y-88974000D02*
X46556000Y-88974000D01*
X45756000Y-92094000D02*
X46556000Y-92094000D01*
X47356000Y-92094000D02*
X46556000Y-92094000D01*
X48356000Y-88974000D02*
X46556000Y-88974000D01*
D12*
%TO.C,U2*%
X106199750Y-195084000D02*
X106199750Y-196084000D01*
X106199750Y-195084000D02*
X107449750Y-195084000D01*
D13*
X107649750Y-193524000D02*
X108449750Y-193524000D01*
X107649750Y-196644000D02*
X108449750Y-196644000D01*
X109249750Y-196644000D02*
X108449750Y-196644000D01*
X110249750Y-193524000D02*
X108449750Y-193524000D01*
%TO.C,U3*%
X145166000Y-184884000D02*
X114166000Y-184884000D01*
X114166000Y-205384000D01*
X145166000Y-205384000D01*
X145166000Y-184884000D01*
%TO.C,C8*%
X108303483Y-189074000D02*
X108596017Y-189074000D01*
X108303483Y-190094000D02*
X108596017Y-190094000D01*
%TO.C,C11*%
X485422233Y-95264000D02*
X485714767Y-95264000D01*
X485422233Y-96284000D02*
X485714767Y-96284000D01*
%TO.C,C7*%
X355594733Y-95264000D02*
X355887267Y-95264000D01*
X355594733Y-96284000D02*
X355887267Y-96284000D01*
%TO.C,C4*%
X225767233Y-95264000D02*
X226059767Y-95264000D01*
X225767233Y-96284000D02*
X226059767Y-96284000D01*
%TO.C,U5*%
X464846000Y-184884000D02*
X433846000Y-184884000D01*
X433846000Y-205384000D01*
X464846000Y-205384000D01*
X464846000Y-184884000D01*
%TO.C,C5*%
X269043033Y-95264000D02*
X269335567Y-95264000D01*
X269043033Y-96284000D02*
X269335567Y-96284000D01*
%TO.C,C9*%
X398870533Y-95264000D02*
X399163067Y-95264000D01*
X398870533Y-96284000D02*
X399163067Y-96284000D01*
%TO.C,R1*%
X43143258Y-196971500D02*
X42668742Y-196971500D01*
X43143258Y-198016500D02*
X42668742Y-198016500D01*
%TO.C,C3*%
X182491433Y-95264000D02*
X182783967Y-95264000D01*
X182491433Y-96284000D02*
X182783967Y-96284000D01*
%TO.C,R2*%
X43103258Y-193981500D02*
X42628742Y-193981500D01*
X43103258Y-195026500D02*
X42628742Y-195026500D01*
%TO.C,C2*%
X139215533Y-95264000D02*
X139508067Y-95264000D01*
X139215533Y-96284000D02*
X139508067Y-96284000D01*
%TO.C,C6*%
X312318933Y-95264000D02*
X312611467Y-95264000D01*
X312318933Y-96284000D02*
X312611467Y-96284000D01*
%TO.C,U1*%
X46456000Y-184144000D02*
X46456000Y-192674000D01*
X46456000Y-187181000D02*
X49123000Y-187181000D01*
X46456000Y-196674000D02*
X46456000Y-205144000D01*
X46756000Y-184174000D02*
X46456000Y-184174000D01*
X46756000Y-205174000D02*
X46456000Y-205174000D01*
X49123000Y-187181000D02*
X49123000Y-184174000D01*
X49256000Y-184174000D02*
X48856000Y-184174000D01*
X49256000Y-205174000D02*
X48856000Y-205174000D01*
X51856000Y-184174000D02*
X51456000Y-184174000D01*
X51856000Y-205174000D02*
X51456000Y-205174000D01*
X54356000Y-184174000D02*
X53956000Y-184174000D01*
X54356000Y-205174000D02*
X53956000Y-205174000D01*
X56956000Y-184174000D02*
X56556000Y-184174000D01*
X56956000Y-205174000D02*
X56556000Y-205174000D01*
X59456000Y-184174000D02*
X59056000Y-184174000D01*
X59456000Y-205174000D02*
X59056000Y-205174000D01*
X61956000Y-184174000D02*
X61556000Y-184174000D01*
X61956000Y-205174000D02*
X61556000Y-205174000D01*
X64556000Y-184174000D02*
X64156000Y-184174000D01*
X64556000Y-205174000D02*
X64156000Y-205174000D01*
X67056000Y-184174000D02*
X66656000Y-184174000D01*
X67056000Y-205174000D02*
X66656000Y-205174000D01*
X69656000Y-184174000D02*
X69256000Y-184174000D01*
X69656000Y-205174000D02*
X69256000Y-205174000D01*
X72156000Y-184174000D02*
X71756000Y-184174000D01*
X72156000Y-205174000D02*
X71756000Y-205174000D01*
X74656000Y-184174000D02*
X74256000Y-184174000D01*
X74656000Y-205174000D02*
X74256000Y-205174000D01*
X77256000Y-184174000D02*
X76856000Y-184174000D01*
X77256000Y-205174000D02*
X76856000Y-205174000D01*
X79756000Y-184174000D02*
X79356000Y-184174000D01*
X79756000Y-205174000D02*
X79356000Y-205174000D01*
X82356000Y-184174000D02*
X81956000Y-184174000D01*
X82356000Y-205174000D02*
X81956000Y-205174000D01*
X84856000Y-184174000D02*
X84456000Y-184174000D01*
X84856000Y-205174000D02*
X84456000Y-205174000D01*
X87456000Y-184174000D02*
X87056000Y-184174000D01*
X87456000Y-205174000D02*
X87056000Y-205174000D01*
X89956000Y-184174000D02*
X89556000Y-184174000D01*
X89956000Y-205174000D02*
X89556000Y-205174000D01*
X92456000Y-184174000D02*
X92056000Y-184174000D01*
X92456000Y-205174000D02*
X92056000Y-205174000D01*
X95056000Y-184174000D02*
X94656000Y-184174000D01*
X95056000Y-205174000D02*
X94656000Y-205174000D01*
X97456000Y-184174000D02*
X97456000Y-190974000D01*
X97456000Y-193574000D02*
X97456000Y-193174000D01*
X97456000Y-196174000D02*
X97456000Y-195774000D01*
X97456000Y-198374000D02*
X97456000Y-205174000D01*
%TO.C,U4*%
X319346000Y-184884000D02*
X288346000Y-184884000D01*
X288346000Y-205384000D01*
X319346000Y-205384000D01*
X319346000Y-184884000D01*
%TO.C,C1*%
X95939733Y-95264000D02*
X96232267Y-95264000D01*
X95939733Y-96284000D02*
X96232267Y-96284000D01*
%TO.C,C10*%
X442146433Y-95264000D02*
X442438967Y-95264000D01*
X442146433Y-96284000D02*
X442438967Y-96284000D01*
%TD*%
%LPC*%
D14*
%TO.C,D15*%
X259850000Y-93574000D03*
X258550000Y-93574000D03*
X262450000Y-93574000D03*
X261150000Y-93574000D03*
%TD*%
%TO.C,D1*%
X56850000Y-93574000D03*
X55550000Y-93574000D03*
X59450000Y-93574000D03*
X58150000Y-93574000D03*
%TD*%
%TO.C,D24*%
X390350000Y-93574000D03*
X389050000Y-93574000D03*
X392950000Y-93574000D03*
X391650000Y-93574000D03*
%TD*%
%TO.C,D16*%
X274350000Y-93574000D03*
X273050000Y-93574000D03*
X276950000Y-93574000D03*
X275650000Y-93574000D03*
%TD*%
%TO.C,D25*%
X404850000Y-93574000D03*
X403550000Y-93574000D03*
X407450000Y-93574000D03*
X406150000Y-93574000D03*
%TD*%
%TO.C,D33*%
X391650000Y-72621500D03*
X392950000Y-72621500D03*
X389050000Y-72621500D03*
X390350000Y-72621500D03*
%TD*%
%TO.C,D6*%
X129350000Y-93574000D03*
X128050000Y-93574000D03*
X131950000Y-93574000D03*
X130650000Y-93574000D03*
%TD*%
%TO.C,D11*%
X201850000Y-93574000D03*
X200550000Y-93574000D03*
X204450000Y-93574000D03*
X203150000Y-93574000D03*
%TD*%
%TO.C,D23*%
X375850000Y-93574000D03*
X374550000Y-93574000D03*
X378450000Y-93574000D03*
X377150000Y-93574000D03*
%TD*%
%TO.C,D34*%
X333650000Y-72621500D03*
X334950000Y-72621500D03*
X331050000Y-72621500D03*
X332350000Y-72621500D03*
%TD*%
%TO.C,D30*%
X477350000Y-93574000D03*
X476050000Y-93574000D03*
X479950000Y-93574000D03*
X478650000Y-93574000D03*
%TD*%
%TO.C,D14*%
X245350000Y-93574000D03*
X244050000Y-93574000D03*
X247950000Y-93574000D03*
X246650000Y-93574000D03*
%TD*%
%TO.C,D46*%
X101650000Y-72621500D03*
X102950000Y-72621500D03*
X99050000Y-72621500D03*
X100350000Y-72621500D03*
%TD*%
%TO.C,D2*%
X71350000Y-93574000D03*
X70050000Y-93574000D03*
X73950000Y-93574000D03*
X72650000Y-93574000D03*
%TD*%
%TO.C,D29*%
X462850000Y-93574000D03*
X461550000Y-93574000D03*
X465450000Y-93574000D03*
X464150000Y-93574000D03*
%TD*%
%TO.C,D3*%
X85850000Y-93574000D03*
X84550000Y-93574000D03*
X88450000Y-93574000D03*
X87150000Y-93574000D03*
%TD*%
%TO.C,D36*%
X217650000Y-72621500D03*
X218950000Y-72621500D03*
X215050000Y-72621500D03*
X216350000Y-72621500D03*
%TD*%
%TO.C,D8*%
X158350000Y-93574000D03*
X157050000Y-93574000D03*
X160950000Y-93574000D03*
X159650000Y-93574000D03*
%TD*%
%TO.C,D9*%
X172850000Y-93574000D03*
X171550000Y-93574000D03*
X175450000Y-93574000D03*
X174150000Y-93574000D03*
%TD*%
%TO.C,D45*%
X159650000Y-72621500D03*
X160950000Y-72621500D03*
X157050000Y-72621500D03*
X158350000Y-72621500D03*
%TD*%
%TO.C,D27*%
X433850000Y-93574000D03*
X432550000Y-93574000D03*
X436450000Y-93574000D03*
X435150000Y-93574000D03*
%TD*%
%TO.C,D31*%
X491850000Y-93574000D03*
X490550000Y-93574000D03*
X494450000Y-93574000D03*
X493150000Y-93574000D03*
%TD*%
%TO.C,D28*%
X448350000Y-93574000D03*
X447050000Y-93574000D03*
X450950000Y-93574000D03*
X449650000Y-93574000D03*
%TD*%
%TO.C,D22*%
X361350000Y-93574000D03*
X360050000Y-93574000D03*
X363950000Y-93574000D03*
X362650000Y-93574000D03*
%TD*%
%TO.C,D21*%
X346850000Y-93574000D03*
X345550000Y-93574000D03*
X349450000Y-93574000D03*
X348150000Y-93574000D03*
%TD*%
%TO.C,D5*%
X114850000Y-93574000D03*
X113550000Y-93574000D03*
X117450000Y-93574000D03*
X116150000Y-93574000D03*
%TD*%
%TO.C,D26*%
X419350000Y-93574000D03*
X418050000Y-93574000D03*
X421950000Y-93574000D03*
X420650000Y-93574000D03*
%TD*%
%TO.C,D32*%
X449650000Y-72621500D03*
X450950000Y-72621500D03*
X447050000Y-72621500D03*
X448350000Y-72621500D03*
%TD*%
%TO.C,D35*%
X275650000Y-72621500D03*
X276950000Y-72621500D03*
X273050000Y-72621500D03*
X274350000Y-72621500D03*
%TD*%
%TO.C,D13*%
X230850000Y-93574000D03*
X229550000Y-93574000D03*
X233450000Y-93574000D03*
X232150000Y-93574000D03*
%TD*%
%TO.C,D4*%
X100350000Y-93574000D03*
X99050000Y-93574000D03*
X102950000Y-93574000D03*
X101650000Y-93574000D03*
%TD*%
%TO.C,D12*%
X216350000Y-93574000D03*
X215050000Y-93574000D03*
X218950000Y-93574000D03*
X217650000Y-93574000D03*
%TD*%
%TO.C,D7*%
X143850000Y-93574000D03*
X142550000Y-93574000D03*
X146450000Y-93574000D03*
X145150000Y-93574000D03*
%TD*%
%TO.C,D10*%
X187350000Y-93574000D03*
X186050000Y-93574000D03*
X189950000Y-93574000D03*
X188650000Y-93574000D03*
%TD*%
%TO.C,D20*%
X332350000Y-93574000D03*
X331050000Y-93574000D03*
X334950000Y-93574000D03*
X333650000Y-93574000D03*
%TD*%
%TO.C,D19*%
X317850000Y-93574000D03*
X316550000Y-93574000D03*
X320450000Y-93574000D03*
X319150000Y-93574000D03*
%TD*%
%TO.C,D18*%
X303350000Y-93574000D03*
X302050000Y-93574000D03*
X305950000Y-93574000D03*
X304650000Y-93574000D03*
%TD*%
D15*
%TO.C,D39*%
X216191700Y-87384000D03*
D16*
X216191700Y-79764000D03*
%TD*%
D17*
%TO.C,HC-SR04-2*%
X126250000Y-87500000D03*
X128750000Y-87500000D03*
X131250000Y-87500000D03*
X133750000Y-87500000D03*
%TD*%
D15*
%TO.C,D40*%
X273704600Y-87384000D03*
D16*
X273704600Y-79764000D03*
%TD*%
D18*
%TO.C,SCR5*%
X354625000Y-205551000D03*
%TD*%
D17*
%TO.C,HC-SR04-8*%
X474250000Y-87500000D03*
X476750000Y-87500000D03*
X479250000Y-87500000D03*
X481750000Y-87500000D03*
%TD*%
%TO.C,HC-SR04-5*%
X300250000Y-87500000D03*
X302750000Y-87500000D03*
X305250000Y-87500000D03*
X307750000Y-87500000D03*
%TD*%
%TO.C,HC-SR04-7*%
X416250000Y-87500000D03*
X418750000Y-87500000D03*
X421250000Y-87500000D03*
X423750000Y-87500000D03*
%TD*%
%TO.C,HC-SR04-6*%
X358250000Y-87500000D03*
X360750000Y-87500000D03*
X363250000Y-87500000D03*
X365750000Y-87500000D03*
%TD*%
D15*
%TO.C,D44*%
X452196000Y-87384000D03*
D16*
X452196000Y-79764000D03*
%TD*%
D18*
%TO.C,SCR8*%
X196000000Y-66426000D03*
%TD*%
%TO.C,SCR6*%
X195375000Y-205551000D03*
%TD*%
D17*
%TO.C,HC-SR04-4*%
X242250000Y-87500000D03*
X244750000Y-87500000D03*
X247250000Y-87500000D03*
X249750000Y-87500000D03*
%TD*%
D15*
%TO.C,D43*%
X446243100Y-87384000D03*
D16*
X446243100Y-79764000D03*
%TD*%
D17*
%TO.C,HC-SR04-1*%
X68250000Y-87500000D03*
X70750000Y-87500000D03*
X73250000Y-87500000D03*
X75750000Y-87500000D03*
%TD*%
D15*
%TO.C,D38*%
X158678900Y-87384000D03*
D16*
X158678900Y-79764000D03*
%TD*%
D18*
%TO.C,SCR4*%
X38000000Y-205426000D03*
%TD*%
%TO.C,SCR1*%
X38000000Y-66426000D03*
%TD*%
D15*
%TO.C,D41*%
X331217400Y-87384000D03*
D16*
X331217400Y-79764000D03*
%TD*%
D18*
%TO.C,SCR3*%
X512000000Y-205426000D03*
%TD*%
%TO.C,SCR2*%
X512000000Y-66426000D03*
%TD*%
%TO.C,SCR7*%
X354000000Y-66426000D03*
%TD*%
D17*
%TO.C,HC-SR04-3*%
X184250000Y-87500000D03*
X186750000Y-87500000D03*
X189250000Y-87500000D03*
X191750000Y-87500000D03*
%TD*%
D15*
%TO.C,D37*%
X101166000Y-87384000D03*
D16*
X101166000Y-79764000D03*
%TD*%
D15*
%TO.C,D42*%
X388730300Y-87384000D03*
D16*
X388730300Y-79764000D03*
%TD*%
D19*
%TO.C,U8*%
X47693500Y-89584000D03*
X47693500Y-90534000D03*
X47693500Y-91484000D03*
X45418500Y-91484000D03*
X45418500Y-89584000D03*
%TD*%
%TO.C,U2*%
X109587250Y-194134000D03*
X109587250Y-195084000D03*
X109587250Y-196034000D03*
X107312250Y-196034000D03*
X107312250Y-194134000D03*
%TD*%
D20*
%TO.C,U3*%
X133476000Y-204164000D03*
X130936000Y-204164000D03*
X128396000Y-204164000D03*
X125856000Y-204164000D03*
X123316000Y-204164000D03*
D21*
X115696000Y-186384000D03*
D20*
X118236000Y-186384000D03*
X120776000Y-186384000D03*
X123316000Y-186384000D03*
X125856000Y-186384000D03*
X128396000Y-186384000D03*
X130936000Y-186384000D03*
X133476000Y-186384000D03*
X136016000Y-186384000D03*
X138556000Y-186384000D03*
X141096000Y-186384000D03*
X143636000Y-186384000D03*
X136016000Y-204164000D03*
%TD*%
D22*
%TO.C,USB1*%
X36263500Y-199114000D03*
X36263500Y-193334000D03*
D23*
X37708500Y-199449000D03*
X37708500Y-198674000D03*
D24*
X37708500Y-197974000D03*
X37708500Y-197474000D03*
X37708500Y-196974000D03*
X37708500Y-196474000D03*
X37708500Y-195974000D03*
X37708500Y-195474000D03*
X37708500Y-194974000D03*
X37708500Y-194474000D03*
D23*
X37708500Y-193774000D03*
X37708500Y-192999000D03*
D25*
X32613500Y-200544000D03*
D26*
X36793500Y-200544000D03*
D25*
X32613500Y-191904000D03*
D26*
X36793500Y-191904000D03*
%TD*%
D27*
%TO.C,C8*%
X109312250Y-189584000D03*
X107587250Y-189584000D03*
%TD*%
%TO.C,C11*%
X486431000Y-95774000D03*
X484706000Y-95774000D03*
%TD*%
%TO.C,C7*%
X356603500Y-95774000D03*
X354878500Y-95774000D03*
%TD*%
%TO.C,C4*%
X226776000Y-95774000D03*
X225051000Y-95774000D03*
%TD*%
D20*
%TO.C,U5*%
X453156000Y-204164000D03*
X450616000Y-204164000D03*
X448076000Y-204164000D03*
X445536000Y-204164000D03*
X442996000Y-204164000D03*
D21*
X435376000Y-186384000D03*
D20*
X437916000Y-186384000D03*
X440456000Y-186384000D03*
X442996000Y-186384000D03*
X445536000Y-186384000D03*
X448076000Y-186384000D03*
X450616000Y-186384000D03*
X453156000Y-186384000D03*
X455696000Y-186384000D03*
X458236000Y-186384000D03*
X460776000Y-186384000D03*
X463316000Y-186384000D03*
X455696000Y-204164000D03*
%TD*%
D27*
%TO.C,C5*%
X270051800Y-95774000D03*
X268326800Y-95774000D03*
%TD*%
%TO.C,C9*%
X399879300Y-95774000D03*
X398154300Y-95774000D03*
%TD*%
D28*
%TO.C,R1*%
X42081000Y-197494000D03*
X43731000Y-197494000D03*
%TD*%
D27*
%TO.C,C3*%
X183500200Y-95774000D03*
X181775200Y-95774000D03*
%TD*%
D28*
%TO.C,R2*%
X42041000Y-194504000D03*
X43691000Y-194504000D03*
%TD*%
D27*
%TO.C,C2*%
X140224300Y-95774000D03*
X138499300Y-95774000D03*
%TD*%
%TO.C,C6*%
X313327700Y-95774000D03*
X311602700Y-95774000D03*
%TD*%
D29*
%TO.C,U1*%
X47826000Y-184874000D03*
X50366000Y-184874000D03*
X52906000Y-184874000D03*
X55446000Y-184874000D03*
X57986000Y-184874000D03*
X60526000Y-184874000D03*
X63066000Y-184874000D03*
X65606000Y-184874000D03*
X68146000Y-184874000D03*
X70686000Y-184874000D03*
X73226000Y-184874000D03*
X75766000Y-184874000D03*
X78306000Y-184874000D03*
X80846000Y-184874000D03*
X83386000Y-184874000D03*
X85926000Y-184874000D03*
X88466000Y-184874000D03*
X91006000Y-184874000D03*
X93546000Y-184874000D03*
X96086000Y-184874000D03*
X96086000Y-204474000D03*
X93546000Y-204474000D03*
X91006000Y-204474000D03*
X88466000Y-204474000D03*
X85926000Y-204474000D03*
X83386000Y-204474000D03*
X80846000Y-204474000D03*
X78306000Y-204474000D03*
X75766000Y-204474000D03*
X73226000Y-204474000D03*
X70686000Y-204474000D03*
X68146000Y-204474000D03*
X65606000Y-204474000D03*
X63066000Y-204474000D03*
X60526000Y-204474000D03*
X57986000Y-204474000D03*
X55446000Y-204474000D03*
X52906000Y-204474000D03*
X50366000Y-204474000D03*
X47826000Y-204474000D03*
D30*
X96756000Y-192134000D03*
X96756000Y-194674000D03*
X96756000Y-197214000D03*
D31*
X50586000Y-194674000D03*
X47306000Y-195674000D03*
X47286000Y-193674000D03*
%TD*%
D20*
%TO.C,U4*%
X307656000Y-204164000D03*
X305116000Y-204164000D03*
X302576000Y-204164000D03*
X300036000Y-204164000D03*
X297496000Y-204164000D03*
D21*
X289876000Y-186384000D03*
D20*
X292416000Y-186384000D03*
X294956000Y-186384000D03*
X297496000Y-186384000D03*
X300036000Y-186384000D03*
X302576000Y-186384000D03*
X305116000Y-186384000D03*
X307656000Y-186384000D03*
X310196000Y-186384000D03*
X312736000Y-186384000D03*
X315276000Y-186384000D03*
X317816000Y-186384000D03*
X310196000Y-204164000D03*
%TD*%
D27*
%TO.C,C1*%
X96948500Y-95774000D03*
X95223500Y-95774000D03*
%TD*%
%TO.C,C10*%
X443155200Y-95774000D03*
X441430200Y-95774000D03*
%TD*%
D14*
%TO.C,D17*%
X288850000Y-93574000D03*
X287550000Y-93574000D03*
X291450000Y-93574000D03*
X290150000Y-93574000D03*
%TD*%
%LPD*%
M02*
