M48
; DRILL file {KiCad 8.0.2} date 2024-06-11T18:45:31+0200
; FORMAT={-:-/ absolute / inch / decimal}
; #@! TF.CreationDate,2024-06-11T18:45:31+02:00
; #@! TF.GenerationSoftware,Kicad,Pcbnew,8.0.2
; #@! TF.FileFunction,Plated,1,2,PTH
FMAT,2
INCH
; #@! TA.AperFunction,Plated,PTH,ViaDrill
T1C0.0157
; #@! TA.AperFunction,Plated,PTH,ComponentDrill
T2C0.0236
; #@! TA.AperFunction,Plated,PTH,ComponentDrill
T3C0.0300
; #@! TA.AperFunction,Plated,PTH,ComponentDrill
T4C0.0315
; #@! TA.AperFunction,Plated,PTH,ComponentDrill
T5C0.0394
; #@! TA.AperFunction,Plated,PTH,ComponentDrill
T6C0.0472
%
G90
G05
T1
X1.4668Y-7.4734
X1.5518Y-7.5777
X1.6298Y-3.4482
X1.6317Y-3.5691
X1.6613Y-3.3887
X1.7794Y-3.3887
X1.7794Y-3.4478
X1.8187Y-3.5659
X2.7046Y-7.4832
X2.7829Y-5.3893
X2.7833Y-6.9911
X2.8227Y-7.4832
X2.9408Y-3.0541
X2.9802Y-3.2706
X3.9079Y-5.3893
X3.925Y-6.9911
X4.7518Y-6.9911
X5.0579Y-5.3893
X5.1829Y-5.3893
X5.2636Y-3.0541
X5.4605Y-6.9911
X6.3069Y-6.9911
X6.3329Y-5.3893
X7.4579Y-5.3893
X7.4683Y-6.9911
X9.6079Y-5.3893
X9.6337Y-6.9911
X10.7579Y-5.3893
X10.7754Y-6.9911
X11.6022Y-6.9714
X11.9079Y-5.3893
X12.0329Y-5.3893
X12.3109Y-6.9714
X13.1573Y-6.9911
X13.1829Y-5.3893
X14.2991Y-6.9911
X14.3079Y-5.3893
X16.4579Y-5.3893
X16.4841Y-6.9911
X17.2321Y-6.9911
X17.6079Y-5.3893
X17.7329Y-5.3893
X17.9211Y-6.9911
X18.866Y-6.9911
X18.8829Y-5.3893
T3
X2.187Y-3.684
X2.2382Y-3.684
X2.2894Y-3.684
X2.3406Y-3.684
X2.687Y-3.4449
X2.7579Y-3.684
X2.7854Y-3.4449
X2.8091Y-3.684
X2.8602Y-3.684
X2.8839Y-3.4449
X2.9114Y-3.684
X2.9823Y-3.4449
X3.3287Y-3.684
X3.3799Y-3.684
X3.4311Y-3.684
X3.4823Y-3.684
X3.8996Y-2.8591
X3.8996Y-3.684
X3.9508Y-2.8591
X3.9508Y-3.684
X4.002Y-2.8591
X4.002Y-3.684
X4.0531Y-2.8591
X4.0531Y-3.684
X4.4705Y-3.684
X4.5217Y-3.684
X4.5728Y-3.684
X4.624Y-3.684
X4.9705Y-3.4449
X5.0413Y-3.684
X5.0689Y-3.4449
X5.0925Y-3.684
X5.1437Y-3.684
X5.1673Y-3.4449
X5.1949Y-3.684
X5.2657Y-3.4449
X5.6122Y-3.684
X5.6634Y-3.684
X5.7146Y-3.684
X5.7657Y-3.684
X6.1831Y-2.8591
X6.1831Y-3.684
X6.2343Y-2.8591
X6.2343Y-3.684
X6.2854Y-2.8591
X6.2854Y-3.684
X6.3366Y-2.8591
X6.3366Y-3.684
X6.7539Y-3.684
X6.8051Y-3.684
X6.8563Y-3.684
X6.9075Y-3.684
X7.2539Y-3.4449
X7.3248Y-3.684
X7.3524Y-3.4449
X7.376Y-3.684
X7.4272Y-3.684
X7.4508Y-3.4449
X7.4783Y-3.684
X7.5492Y-3.4449
X7.8957Y-3.684
X7.9469Y-3.684
X7.998Y-3.684
X8.0492Y-3.684
X8.4665Y-2.8591
X8.4665Y-3.684
X8.5177Y-2.8591
X8.5177Y-3.684
X8.5689Y-2.8591
X8.5689Y-3.684
X8.6201Y-2.8591
X8.6201Y-3.684
X9.0374Y-3.684
X9.0886Y-3.684
X9.1398Y-3.684
X9.1909Y-3.684
X9.5374Y-3.4449
X9.6083Y-3.684
X9.6358Y-3.4449
X9.6594Y-3.684
X9.7106Y-3.684
X9.7343Y-3.4449
X9.7618Y-3.684
X9.8327Y-3.4449
X10.1791Y-3.684
X10.2303Y-3.684
X10.2815Y-3.684
X10.3327Y-3.684
X10.75Y-2.8591
X10.75Y-3.684
X10.8012Y-2.8591
X10.8012Y-3.684
X10.8524Y-2.8591
X10.8524Y-3.684
X10.9035Y-2.8591
X10.9035Y-3.684
X11.3209Y-3.684
X11.372Y-3.684
X11.4232Y-3.684
X11.4744Y-3.684
X11.8209Y-3.4449
X11.8917Y-3.684
X11.9193Y-3.4449
X11.9429Y-3.684
X11.9941Y-3.684
X12.0177Y-3.4449
X12.0453Y-3.684
X12.1161Y-3.4449
X12.4626Y-3.684
X12.5138Y-3.684
X12.565Y-3.684
X12.6161Y-3.684
X13.0335Y-2.8591
X13.0335Y-3.684
X13.0846Y-2.8591
X13.0846Y-3.684
X13.1358Y-2.8591
X13.1358Y-3.684
X13.187Y-2.8591
X13.187Y-3.684
X13.6043Y-3.684
X13.6555Y-3.684
X13.7067Y-3.684
X13.7579Y-3.684
X14.1043Y-3.4449
X14.1752Y-3.684
X14.2028Y-3.4449
X14.2264Y-3.684
X14.2776Y-3.684
X14.3012Y-3.4449
X14.3287Y-3.684
X14.3996Y-3.4449
X14.7461Y-3.684
X14.7972Y-3.684
X14.8484Y-3.684
X14.8996Y-3.684
X15.3169Y-2.8591
X15.3169Y-3.684
X15.3681Y-2.8591
X15.3681Y-3.684
X15.4193Y-2.8591
X15.4193Y-3.684
X15.4705Y-2.8591
X15.4705Y-3.684
X15.8878Y-3.684
X15.939Y-3.684
X15.9902Y-3.684
X16.0413Y-3.684
X16.3878Y-3.4449
X16.4587Y-3.684
X16.4862Y-3.4449
X16.5098Y-3.684
X16.561Y-3.684
X16.5846Y-3.4449
X16.6122Y-3.684
X16.6831Y-3.4449
X17.0295Y-3.684
X17.0807Y-3.684
X17.1319Y-3.684
X17.1831Y-3.684
X17.6004Y-2.8591
X17.6004Y-3.684
X17.6516Y-2.8591
X17.6516Y-3.684
X17.7028Y-2.8591
X17.7028Y-3.684
X17.7539Y-2.8591
X17.7539Y-3.684
X18.1713Y-3.684
X18.2224Y-3.684
X18.2736Y-3.684
X18.3248Y-3.684
X18.6713Y-3.4449
X18.7421Y-3.684
X18.7697Y-3.4449
X18.7933Y-3.684
X18.8445Y-3.684
X18.8681Y-3.4449
X18.8957Y-3.684
X18.9665Y-3.4449
X19.313Y-3.684
X19.3642Y-3.684
X19.4154Y-3.684
X19.4665Y-3.684
T4
X3.9829Y-3.1403
X3.9829Y-3.4403
X6.2472Y-3.1403
X6.2472Y-3.4403
X8.5115Y-3.1403
X8.5115Y-3.4403
X10.7758Y-3.1403
X10.7758Y-3.4403
X13.0401Y-3.1403
X13.0401Y-3.4403
X15.3043Y-3.1403
X15.3043Y-3.4403
X17.5686Y-3.1403
X17.5686Y-3.4403
X17.803Y-3.1403
X17.803Y-3.4403
T5
X4.555Y-7.338
X4.655Y-7.338
X4.755Y-7.338
X4.855Y-7.338
X4.855Y-8.038
X4.955Y-7.338
X4.955Y-8.038
X5.055Y-7.338
X5.055Y-8.038
X5.155Y-7.338
X5.155Y-8.038
X5.255Y-7.338
X5.255Y-8.038
X5.355Y-7.338
X5.355Y-8.038
X5.455Y-7.338
X5.555Y-7.338
X5.655Y-7.338
X11.4124Y-7.338
X11.5124Y-7.338
X11.6124Y-7.338
X11.7124Y-7.338
X11.7124Y-8.038
X11.8124Y-7.338
X11.8124Y-8.038
X11.9124Y-7.338
X11.9124Y-8.038
X12.0124Y-7.338
X12.0124Y-8.038
X12.1124Y-7.338
X12.1124Y-8.038
X12.2124Y-7.338
X12.2124Y-8.038
X12.3124Y-7.338
X12.4124Y-7.338
X12.5124Y-7.338
X17.1408Y-7.338
X17.2408Y-7.338
X17.3408Y-7.338
X17.4408Y-7.338
X17.4408Y-8.038
X17.5408Y-7.338
X17.5408Y-8.038
X17.6408Y-7.338
X17.6408Y-8.038
X17.7408Y-7.338
X17.7408Y-8.038
X17.8408Y-7.338
X17.8408Y-8.038
X17.9408Y-7.338
X17.9408Y-8.038
X18.0408Y-7.338
X18.1408Y-7.338
X18.2408Y-7.338
T2
G00X1.2722Y-7.5553
M15
G01X1.2958Y-7.5553
M16
G05
G00X1.2722Y-7.8954
M15
G01X1.2958Y-7.8954
M16
G05
G00X1.4269Y-7.5553
M15
G01X1.4702Y-7.5553
M16
G05
G00X1.4269Y-7.8954
M15
G01X1.4702Y-7.8954
M16
G05
T6
G00X1.8813Y-7.625
M15
G01X1.842Y-7.625
M16
G05
G00X1.8821Y-7.7037
M15
G01X1.8428Y-7.7037
M16
G05
G00X2.0113Y-7.6643
M15
G01X1.9719Y-7.6643
M16
G05
M30
